<svg xmlns="http://www.w3.org/2000/svg" width="7" height="12" viewBox="0 0 7 12">
    <path data-name="패스 4741" d="M2758.877 1549.179a.984.984 0 0 0-1.432-.045l-4.292 4.218-4.292-4.218a.983.983 0 0 0-1.431.045 1.086 1.086 0 0 0 .041 1.492l4.979 4.893a.979.979 0 0 0 .294.192l.012.007a.962.962 0 0 0 .263.063.871.871 0 0 0 .133.022.883.883 0 0 0 .133-.022.976.976 0 0 0 .265-.062l.012-.007a1 1 0 0 0 .294-.192l4.978-4.893a1.086 1.086 0 0 0 .043-1.493z" transform="rotate(-90 605.153 2154)" style="fill:#222"/>
</svg>
