<svg xmlns="http://www.w3.org/2000/svg" width="33" height="33" viewBox="0 0 33 33">
    <g transform="translate(-304 -526.98)">
        <circle data-name="타원 1060" cx="16" cy="16" transform="translate(304.5 527.48)" style="stroke:#000;fill:#beabff" r="16"/>
        <path d="m-306.633-455.161 1.925 3.336m1.286-1.2a2.591 2.591 0 0 0-2.971 1.716m-1.527-2.645a2.591 2.591 0 0 0 2.971-1.716m-7.138-2.656.513 1.037 1.155-.074.513 1.037 1.154-.075m-2.372-3.599.513 1.037 1.155-.075.513 1.037 1.155-.074m-7.731.288a.806.806 0 0 0 .49.165.809.809 0 0 0 .808-.809 6.9 6.9 0 0 0-.55-1.987m0 0 .55-.768m-3.851.768.963 1.907.963-1.907h1.375m-8.037 2.76 1.01.271m.932-1.57-.719-1.245-1.245.719m.026 3.832 1.219-4.551m-5.311 14.681v-3.979m-1.925.132v.963a.963.963 0 0 0-.963.963.963.963 0 0 0 .963.963v.963m2.245-10.593 1.5 1.757a.894.894 0 0 1 .16 1.063.663.663 0 0 1-.946.236l-.761-.439c-.688-.4-1.285-.678-1.686.017a4.213 4.213 0 0 0-.351 1.03l2.332 1.347m0 7.313-.776 1.56c-.428.862-.748 1.609-.347 2.3a4.212 4.212 0 0 0 .716.819l2.332-1.347m-4.44-1.883 3.477.216m2.976 2.6c.52.069.968.525.633 1.1-.324.561-1.388.736-1.819 1.483a1.277 1.277 0 0 0 .549 1.715 1.276 1.276 0 0 0 1.76-.382 5.079 5.079 0 0 0 .406-1.113l.337.194m5.878-.265a2.757 2.757 0 0 0-2.657 0 .757.757 0 0 0 .318 1.443m-.661 1.443a2.758 2.758 0 0 0 2.657 0 .757.757 0 0 0-.318-1.443m4.918-.05-1.222-2.117m3.02 1.078-1.222-2.117m-2.458 1.125a3.653 3.653 0 0 0 2.863-1.654m1.483 2.57a3.653 3.653 0 0 0-2.863 1.654m7.48-6.679a1.3 1.3 0 0 0-1.776.476 1.3 1.3 0 0 0 .476 1.777m-.476-1.777a1.3 1.3 0 0 0-.476-1.777 1.3 1.3 0 0 0-1.776.476 1.3 1.3 0 0 0 .476 1.777 1.3 1.3 0 0 0 1.774-.471zm-.24-6.389h1.791a.963.963 0 0 0 .963-.963.963.963 0 0 0-.963-.963m0 3.852a.963.963 0 0 0 .963-.963.963.963 0 0 0-.963-.963" transform="translate(636.678 990.953)" style="fill:none;stroke-linecap:round;stroke-linejoin:round;stroke-miterlimit:10;stroke:#000"/>
        <g data-name="그룹 21942" transform="translate(312.076 535.056)">
            <circle data-name="타원 1061" cx="8.425" cy="8.425" r="8.425" style="fill:#fff;stroke:#000"/>
            <g data-name="그룹 21941">
                <g data-name="그룹 21940">
                    <path data-name="path4623" d="M-318.129-442.7v-2.691m0-8.147v-2.691m-3.382 12.622 1.345-2.33m-3.821-.146 2.33-1.345m-3.236-2.037h2.691m-1.784-3.382 2.33 1.345m.146-3.821 1.345 2.33" transform="translate(326.555 457.99)" style="fill:none;stroke-linecap:round;stroke-linejoin:round;stroke-miterlimit:10;stroke:#000"/>
                    <path data-name="path4623" d="m-322.275-443.944-1.345-2.33m3.821-.146-2.33-1.345m3.236-2.037h-2.69m1.784-3.382-2.33 1.345m-.146-3.821-1.345 2.33" transform="translate(334.083 458.33)" style="fill:none;stroke-linecap:round;stroke-linejoin:round;stroke-miterlimit:10;stroke:#000"/>
                </g>
                <path data-name="패스 13858" d="M4.073 0A4.073 4.073 0 1 1 0 4.073 4.073 4.073 0 0 1 4.073 0z" transform="translate(4.332 4.455)" style="fill:#f9d366;stroke:#000"/>
            </g>
        </g>
    </g>
</svg>
