<svg xmlns="http://www.w3.org/2000/svg" width="37" height="30.999" viewBox="0 0 37 30.999">
    <path data-name="패스 11388" d="M19.659 18.357c0-.015.015-.015.015-.03-.118-.221-.251-.427-.384-.633a2.521 2.521 0 0 0-.147-.265 6.857 6.857 0 0 0-.839-1c-.073-.089-.162-.162-.251-.251a8.577 8.577 0 0 0-.795-.663c-.1-.074-.191-.132-.295-.206a8.788 8.788 0 0 0-1.163-.633c-.073-.03-.162-.045-.235-.074a6.856 6.856 0 0 0-1.075-.338c-.133-.03-.251-.06-.384-.089a8.816 8.816 0 0 0-1.4-.132H8.2a8.831 8.831 0 0 0-1.4.132c-.132.029-.249.059-.382.089a6.856 6.856 0 0 0-1.075.338c-.075.029-.162.044-.237.074a8.788 8.788 0 0 0-1.163.633c-.1.074-.191.132-.294.206a8.4 8.4 0 0 0-.795.663c-.089.089-.177.162-.251.251a6.857 6.857 0 0 0-.839 1 2.307 2.307 0 0 0-.148.265c-.132.206-.264.412-.382.633 0 .015.015.015.015.03A7.726 7.726 0 0 0 .4 21.846v3.592h20.113v-3.592a7.726 7.726 0 0 0-.854-3.489" transform="translate(.1 5.061)" style="stroke:#000;fill:#7acfa5"/>
    <path data-name="패스 11390" d="M6.032 12.281v2.4a2.4 2.4 0 1 0 4.8 0v-2.4" transform="translate(2.265 4.42)" style="fill:#ffd8ca;stroke:#000"/>
    <path data-name="패스 11392" d="m16.338 8.894.5-1.964a4.427 4.427 0 0 0-1.952-4.83l-.686-.428a8.367 8.367 0 0 0-8.871 0l-.683.428A4.435 4.435 0 0 0 2.7 6.93l.5 1.964a1.8 1.8 0 0 1 .566-.094h.6V7h1.3a4.1 4.1 0 0 0 2.9-1.2l2.364 2.362a2.173 2.173 0 0 0 3.074 0L15.169 7v1.8h.6a1.8 1.8 0 0 1 .571.093z" transform="translate(.933 .1)" style="fill:#f9d366;stroke:#000"/>
    <path data-name="패스 11396" d="M11.667 6.561h.6a1.8 1.8 0 0 1 0 3.6h-.6" transform="translate(4.435 2.339)" style="fill:#ffd8ca;stroke:#000"/>
    <path data-name="패스 11398" d="M4.532 6.561h-.6a1.8 1.8 0 0 0 0 3.6h.6" transform="translate(.766 2.339)" style="fill:#ffd8ca;stroke:#000"/>
    <path data-name="패스 11400" d="M14.267 24.8v-2.4a6.6 6.6 0 0 1 6.6-6.6h3.6a6.6 6.6 0 0 1 6.6 6.6v2.4z" transform="translate(5.433 5.698)" style="fill:#f9d366;stroke:#000"/>
    <path data-name="패스 11402" d="M19.033 13.6v3a1.8 1.8 0 1 0 3.6 0v-3" transform="translate(7.265 4.896)" style="fill:#ffd8ca;stroke:#000"/>
    <path data-name="패스 11404" d="M29.537 17.438h-14.4v-7.2a7.2 7.2 0 0 1 14.4 0z" transform="translate(5.764 1.058)" style="stroke:#000;fill:#7acfa5"/>
    <path data-name="패스 11406" d="M23.8 8.318h.6a1.8 1.8 0 0 1 0 3.6h-.6" transform="translate(9.101 2.977)" style="fill:#ffd8ca;stroke:#000"/>
    <path data-name="패스 11408" d="M17.533 8.318h-.6a1.8 1.8 0 0 0 0 3.6h.6" transform="translate(5.763 2.977)" style="fill:#ffd8ca;stroke:#000"/>
    <path data-name="패스 11410" d="M26.468 7.758v4.8a4.8 4.8 0 1 1-9.6 0v-4.8h1.9a4.1 4.1 0 0 0 2.9-1.2 4.093 4.093 0 0 0 2.9 1.2z" transform="translate(6.434 2.338)" style="fill:#ffe5d8;stroke:#000"/>
    <path data-name="패스 11394" d="M14.667 5.56v5.4a5.4 5.4 0 1 1-10.8 0v-5.4h1.3a4.1 4.1 0 0 0 2.9-1.2l2.363 2.363a2.177 2.177 0 0 0 3.074 0z" transform="translate(1.431 1.54)" style="fill:#ffe5d8;stroke:#000"/>
</svg>
