<svg xmlns="http://www.w3.org/2000/svg" width="36" height="33" viewBox="0 0 36 33">
    <g data-name="그룹 15510">
        <path data-name="패스 11412" d="M3.147 4.619h15.47a2.709 2.709 0 0 1 2.747 2.668v21.807a2.709 2.709 0 0 1-2.747 2.668H3.147A2.709 2.709 0 0 1 .4 29.094V7.287a2.709 2.709 0 0 1 2.747-2.668" transform="translate(.1 .737)" style="stroke:#000;fill:#f9d366"/>
        <path data-name="선 8" transform="translate(4.074 9.225)" style="stroke-linecap:round;stroke-linejoin:round;fill:none;stroke:#000" d="M0 0h2.722"/>
        <path data-name="선 9" transform="translate(5.438 7.9)" style="stroke-linecap:round;stroke-linejoin:round;fill:none;stroke:#000" d="M0 0v2.645"/>
        <g data-name="그룹 15712">
            <path data-name="선 10" transform="translate(13.446 28.606)" style="stroke-linecap:round;stroke-linejoin:round;fill:none;stroke:#000" d="M0 0h2.722"/>
            <path data-name="선 11" transform="translate(14.807 27.281)" style="stroke-linecap:round;stroke-linejoin:round;fill:none;stroke:#000" d="M0 0v2.645"/>
        </g>
        <path data-name="패스 11414" d="M14.038 20.355a6.571 6.571 0 0 1-9.1 0 6.126 6.126 0 0 1 0-8.841 6.554 6.554 0 0 1 5.338-1.782 4.5 4.5 0 0 0-3.428 5.438 4.653 4.653 0 0 0 5.6 3.33 4.578 4.578 0 0 0 3.428-3.33 6.137 6.137 0 0 1-1.837 5.186" transform="translate(1.491 2.992)" style="fill:#7acfa5;stroke:#000"/>
    </g>
    <path data-name="패스 11416" d="M13.367.4h15.3a2.646 2.646 0 0 1 2.717 2.568v20.994a2.646 2.646 0 0 1-2.717 2.568h-15.3a2.646 2.646 0 0 1-2.717-2.568V2.968A2.646 2.646 0 0 1 13.367.4" transform="translate(4.119 .1)" style="fill:#7acfa5;stroke:#000"/>
    <g data-name="그룹 15508">
        <path data-name="선 12" transform="translate(17.904 4.594)" style="stroke-linecap:round;stroke-linejoin:round;fill:none;stroke:#000" d="M0 0h2.722"/>
        <path data-name="선 13" transform="translate(19.262 3.194)" style="stroke-linecap:round;stroke-linejoin:round;fill:none;stroke:#000" d="M0 0v2.801"/>
    </g>
    <g data-name="그룹 15509">
        <path data-name="선 14" transform="translate(27.487 22.826)" style="stroke-linecap:round;stroke-linejoin:round;fill:none;stroke:#000" d="M0 0h2.722"/>
        <path data-name="선 15" transform="translate(28.848 21.423)" style="stroke-linecap:round;stroke-linejoin:round;fill:none;stroke:#000" d="M0 0v2.801"/>
    </g>
    <g data-name="그룹 15507">
        <path data-name="패스 11419" d="m13.248 7.2 2.174 3.958L17.595 7.2z" transform="translate(5.252 2.644)" style="stroke-linecap:round;stroke-linejoin:round;stroke:#000;fill:#f9d366"/>
        <path data-name="패스 11421" d="M23.3 7.2h-4.349l2.173 3.958z" transform="translate(8.244 2.644)" style="stroke-linecap:round;stroke-linejoin:round;stroke:#000;fill:#f9d366"/>
        <path data-name="패스 11423" d="m18.274 16.334 2.174-3.958H16.1z" transform="translate(6.747 5.385)" style="stroke-linecap:round;stroke-linejoin:round;stroke:#000;fill:#f9d366"/>
        <path data-name="패스 11425" d="M13.248 13.748h4.347L15.422 9.79z" transform="translate(5.252 4.014)" style="stroke-linecap:round;stroke-linejoin:round;stroke:#000;fill:#f9d366"/>
        <path data-name="패스 11427" d="m21.125 9.791-2.174 3.958H23.3z" transform="translate(8.243 4.015)" style="stroke-linecap:round;stroke-linejoin:round;stroke:#000;fill:#f9d366"/>
        <path data-name="패스 11429" d="M18.274 4.619 16.1 8.577h4.348z" transform="translate(6.747 1.271)" style="stroke-linecap:round;stroke-linejoin:round;stroke:#000;fill:#f9d366"/>
        <path data-name="패스 11431" d="M21.2 7.2h-4.353l-2.173 3.958 2.173 3.958H21.2l2.174-3.958z" transform="translate(5.998 2.644)" style="stroke-linecap:round;stroke-linejoin:round;stroke:#000;fill:#f9d366"/>
    </g>
</svg>
