<svg xmlns="http://www.w3.org/2000/svg" width="27" height="33" viewBox="0 0 27 33">
    <path d="M-391.186-242.553v-8.893c0-5.869-5.832-10.643-13-10.643s-13 4.774-13 10.643v10.714c0 5.869 5.832 10.643 13 10.643s13-4.774 13-10.643v-1.821" transform="translate(417.686 262.588)" style="stroke:#000;stroke-linecap:round;stroke-linejoin:round;stroke-miterlimit:10;fill:#beabff"/>
    <path d="M0 0a11.979 11.979 0 0 0 11.932 12.013" transform="translate(.5 15.465)" style="fill:none;stroke:#000;stroke-linecap:round;stroke-linejoin:round;stroke-miterlimit:10"/>
    <g data-name="그룹 21947">
        <path d="M-277.555-124.331h-.155a8.347 8.347 0 0 0-8.164-8.491 8.347 8.347 0 0 0-8.164 8.491h-.155a1.48 1.48 0 0 0-1.448 1.511 1.48 1.48 0 0 0 1.448 1.51h.155a8.347 8.347 0 0 0 8.164 8.491 8.347 8.347 0 0 0 8.164-8.491h.155a1.48 1.48 0 0 0 1.447-1.51 1.48 1.48 0 0 0-1.447-1.511" transform="translate(299.445 136.36)" style="fill:#ffe5d8"/>
        <path d="M-277.555-124.331h-.155a8.347 8.347 0 0 0-8.164-8.491 8.347 8.347 0 0 0-8.164 8.491h-.155a1.48 1.48 0 0 0-1.448 1.511 1.48 1.48 0 0 0 1.448 1.51h.155a8.347 8.347 0 0 0 8.164 8.491 8.347 8.347 0 0 0 8.164-8.491h.155a1.48 1.48 0 0 0 1.447-1.51 1.48 1.48 0 0 0-1.447-1.511z" transform="translate(299.445 136.36)" style="fill:none;stroke:#000;stroke-linecap:round;stroke-linejoin:round;stroke-miterlimit:10"/>
        <path d="M2.876 0A2.025 2.025 0 0 1 0 0" transform="rotate(180 9.225 6.292)" style="fill:none;stroke:#000;stroke-linecap:round;stroke-linejoin:round;stroke-miterlimit:10"/>
        <path d="M2.876 0A2.025 2.025 0 0 1 0 0" transform="rotate(180 5.783 6.292)" style="fill:none;stroke:#000;stroke-linecap:round;stroke-linejoin:round;stroke-miterlimit:10"/>
        <path d="M-70.386-35.129a2.392 2.392 0 0 1-2.386 2.4 2.392 2.392 0 0 1-2.386-2.4 2.392 2.392 0 0 1 2.386-2.4 2.392 2.392 0 0 1 2.386 2.4" transform="translate(86.342 52.788)" style="fill:#f9d366"/>
        <path d="M-70.386-35.129a2.392 2.392 0 0 1-2.386 2.4 2.392 2.392 0 0 1-2.386-2.4 2.392 2.392 0 0 1 2.386-2.4 2.392 2.392 0 0 1 2.386 2.4z" transform="translate(86.342 52.788)" style="fill:none;stroke:#000;stroke-linecap:round;stroke-linejoin:round;stroke-miterlimit:10"/>
        <path d="M-52.24-43.163a1.911 1.911 0 0 1-1.626.909 1.922 1.922 0 0 1-1.915-1.928 1.922 1.922 0 0 1 1.915-1.929" transform="translate(67.467 49.65)" style="fill:none;stroke:#000;stroke-linecap:round;stroke-linejoin:round;stroke-miterlimit:10"/>
    </g>
</svg>
