<svg xmlns="http://www.w3.org/2000/svg" width="38.003" height="27.046" viewBox="0 0 38.003 27.046">
    <path d="M-375.48 0h-20.82a46.97 46.97 0 0 0-1.382 11.407.769.769 0 0 0 .324.634c1.056.747 4.713 2.952 11.469 3.284 6.756-.332 10.413-2.537 11.469-3.284a.769.769 0 0 0 .324-.634A46.968 46.968 0 0 0-375.48 0" transform="translate(404.893 7.887)" style="fill:#8672cc"/>
    <path d="M-2.23-136.271a53.344 53.344 0 0 0-.132 3.36.768.768 0 0 0 .324.634c1.056.747 4.713 2.952 11.469 3.284 6.756-.332 10.413-2.537 11.469-3.284a.769.769 0 0 0 .324-.634 46.971 46.971 0 0 0-1.382-11.407H-.98a57.28 57.28 0 0 0-1.25 8.048" transform="translate(9.569 152.205)" style="fill:none;stroke:#000;stroke-linecap:round;stroke-linejoin:round;stroke-miterlimit:10"/>
    <path d="m-304.681-1.313-17.491 5.777a.766.766 0 0 0 0 1.456l17.491 5.777a1.537 1.537 0 0 0 .964 0l17.491-5.777a.766.766 0 0 0 0-1.456l-17.491-5.777a1.536 1.536 0 0 0-.964 0" transform="translate(323.199 1.894)" style="fill:#beabff"/>
    <path d="m-437.24-183.151 10.616-3.506a.766.766 0 0 0 0-1.456l-17.491-5.777a1.538 1.538 0 0 0-.964 0l-17.491 5.777a.766.766 0 0 0 0 1.456l17.491 5.777a1.535 1.535 0 0 0 .964 0l6.875-2.271" transform="translate(463.597 194.469)" style="fill:none;stroke:#000;stroke-linecap:round;stroke-linejoin:round;stroke-miterlimit:10"/>
    <path d="M-66.4-22.7c0 .74-.879 1.034-1.963 1.034s-1.963-.294-1.963-1.034.879-1.341 1.963-1.341 1.963.6 1.963 1.341" transform="translate(87.36 28.899)" style="fill:#f9d366"/>
    <path d="M-66.4-22.7c0 .74-.879 1.034-1.963 1.034s-1.963-.294-1.963-1.034.879-1.341 1.963-1.341 1.963.601 1.963 1.341z" transform="translate(87.36 28.899)" style="fill:none;stroke:#000;stroke-linecap:round;stroke-linejoin:round;stroke-miterlimit:10"/>
    <path d="m-109.079 0-6.451 4.263v4.619" transform="translate(126.377 6.8)" style="fill:none;stroke:#000;stroke-linecap:round;stroke-linejoin:round;stroke-miterlimit:10"/>
    <path d="M-24.533 0c-.534 1.149-1.425 3.993-1.451 10.206a.372.372 0 0 0 .28.361 6.365 6.365 0 0 0 1.565.189 6.365 6.365 0 0 0 1.565-.189.372.372 0 0 0 .28-.361C-22.32 3.993-23.211 1.149-23.745 0z" transform="translate(34.986 14.972)" style="fill:#f9d366"/>
    <path d="M-24.533 0c-.534 1.149-1.425 3.993-1.451 10.206a.372.372 0 0 0 .28.361 6.365 6.365 0 0 0 1.565.189 6.365 6.365 0 0 0 1.565-.189.372.372 0 0 0 .28-.361C-22.32 3.993-23.211 1.149-23.745 0z" transform="translate(34.986 14.972)" style="fill:none;stroke:#000;stroke-linecap:round;stroke-linejoin:round;stroke-miterlimit:10"/>
    <path d="M-52.474-26.238a1.551 1.551 0 0 1-1.552 1.55 1.551 1.551 0 0 1-1.552-1.55 1.551 1.551 0 0 1 1.552-1.55 1.551 1.551 0 0 1 1.552 1.55" transform="translate(64.873 41.127)" style="fill:#f9d366"/>
    <path d="M-52.474-26.238a1.551 1.551 0 0 1-1.552 1.55 1.551 1.551 0 0 1-1.552-1.55 1.551 1.551 0 0 1 1.552-1.55 1.551 1.551 0 0 1 1.552 1.55z" transform="translate(64.873 41.127)" style="fill:none;stroke:#000;stroke-linecap:round;stroke-linejoin:round;stroke-miterlimit:10"/>
    <path d="M-337.188-80.723c.739-.269.954-1.543.479-2.845s-1.459-2.141-2.2-1.872l-18.221 6.623 1.719 4.717z" transform="translate(373.957 100.552)" style="fill:#fff"/>
    <path d="m-307.641-91.478 1.747-.635c.739-.269.954-1.543.479-2.845s-1.459-2.141-2.2-1.872l-18.221 6.623 1.719 4.717 16.474-5.988" transform="translate(342.662 111.943)" style="fill:none;stroke:#000;stroke-linecap:round;stroke-linejoin:round;stroke-miterlimit:10"/>
    <path d="M-49.545-32.546c.475 1.3.26 2.576-.479 2.845s-1.724-.569-2.2-1.872-.26-2.576.479-2.845 1.724.569 2.2 1.872" transform="translate(68.572 56.153)" style="fill:#c2c2c2"/>
    <path d="M-49.545-32.546c.475 1.3.26 2.576-.479 2.845s-1.724-.569-2.2-1.872-.26-2.576.479-2.845 1.725.569 2.2 1.872z" transform="translate(68.572 56.153)" style="fill:none;stroke:#000;stroke-linecap:round;stroke-linejoin:round;stroke-miterlimit:10"/>
    <path d="M-29.069-96.337c.739-.269.954-1.543.479-2.845s-1.459-2.141-2.2-1.872l2.537-.922c.739-.269 1.724.569 2.2 1.872s.26 2.576-.479 2.845c0 0 2.436-.35 3.425 1.529a.371.371 0 0 1-.2.519l-2.562.931a.372.372 0 0 1-.477-.222c-.274-.761-1.079-2.431-2.718-1.836" transform="translate(56.245 119.653)" style="fill:#f9d366"/>
    <path d="M-29.069-96.337c.739-.269.954-1.543.479-2.845s-1.459-2.141-2.2-1.872l2.537-.922c.739-.269 1.724.569 2.2 1.872s.26 2.576-.479 2.845c0 0 2.436-.35 3.425 1.529a.371.371 0 0 1-.2.519l-2.562.931a.372.372 0 0 1-.477-.222c-.279-.76-1.084-2.431-2.723-1.835z" transform="translate(56.245 119.653)" style="fill:none;stroke:#000;stroke-linecap:round;stroke-linejoin:round;stroke-miterlimit:10"/>
    <path d="m-42.894 0-2.537.922" transform="translate(72.608 22.393)" style="fill:none;stroke:#000;stroke-linecap:round;stroke-linejoin:round;stroke-miterlimit:10"/>
</svg>
