<svg xmlns="http://www.w3.org/2000/svg" width="34" height="30" viewBox="0 0 34 30">
    <g data-name="그룹 69487" transform="translate(.496 .5)">
        <ellipse data-name="타원 1400" cx="14.304" cy="14.5" rx="14.304" ry="14.5" style="fill:#beabff"/>
        <ellipse data-name="타원 1401" cx="9.037" cy="9.193" rx="9.037" ry="9.193" transform="translate(5.266 5.307)" style="fill:#fff"/>
        <ellipse data-name="타원 1402" cx="4.437" cy="4.474" rx="4.437" ry="4.474" transform="translate(9.867 10.026)" style="fill:#f9d366"/>
        <path data-name="패스 30831" d="M411.348 216.918h-3.224a.9.9 0 0 1-.719-.358l-1.415-1.86a.919.919 0 0 1 0-1.111l1.416-1.863a.9.9 0 0 1 .719-.358h3.224a.913.913 0 0 1 .719 1.468l-.572.752a.919.919 0 0 0 0 1.111l.572.752a.913.913 0 0 1-.72 1.467z" transform="translate(-379.247 -199.887)" style="fill:#fecc42"/>
    </g>
    <g data-name="그룹 69488">
        <path data-name="타원 1403" d="M14.8 10.026a4.974 4.974 0 0 1 0 9.948 4.974 4.974 0 0 1 0-9.948zm0 8.948A3.974 3.974 0 1 0 10.859 15a3.962 3.962 0 0 0 3.941 3.976z"/>
        <path data-name="타원 1404" d="M14.799 5.307A9.625 9.625 0 0 1 24.332 15a9.625 9.625 0 0 1-9.533 9.693A9.625 9.625 0 0 1 5.266 15a9.625 9.625 0 0 1 9.533-9.693zm0 18.379a8.624 8.624 0 0 0 8.541-8.685 8.624 8.624 0 0 0-8.541-8.686A8.624 8.624 0 0 0 6.258 15a8.624 8.624 0 0 0 8.541 8.686z"/>
        <path data-name="패스 30832" d="M14.8 30a15 15 0 0 1 0-30 14.707 14.707 0 0 1 9.371 3.389 15.081 15.081 0 0 1 5.1 8.471.5.5 0 0 1-.382.6.5.5 0 0 1-.588-.387 14 14 0 1 0 .07 5.507.5.5 0 0 1 .578-.4.5.5 0 0 1 .4.586A14.85 14.85 0 0 1 14.8 30z"/>
        <path data-name="패스 30833" d="M32.598 18.031h-3.224a1.406 1.406 0 0 1-1.112-.553l-1.416-1.863a1.425 1.425 0 0 1 0-1.719l1.416-1.863a1.406 1.406 0 0 1 1.112-.553h3.224a1.391 1.391 0 0 1 1.256.788 1.414 1.414 0 0 1-.144 1.485l-.572.752a.416.416 0 0 0 0 .5l.572.752a1.414 1.414 0 0 1 .144 1.485 1.391 1.391 0 0 1-1.256.789zm-3.224-5.551a.411.411 0 0 0-.325.162l-1.416 1.863a.416.416 0 0 0 0 .5l1.416 1.863a.411.411 0 0 0 .325.162h3.224a.4.4 0 0 0 .367-.23.405.405 0 0 0-.042-.434l-.572-.752a1.425 1.425 0 0 1 0-1.719l.572-.752a.405.405 0 0 0 .042-.434.4.4 0 0 0-.367-.23z"/>
        <path data-name="선 99" d="M27.049 15.256H14.802a.5.5 0 0 1-.5-.5.5.5 0 0 1 .5-.5h12.247a.5.5 0 0 1 .5.5.5.5 0 0 1-.5.5z"/>
    </g>
</svg>
