<svg xmlns="http://www.w3.org/2000/svg" width="29.002" height="30.999" viewBox="0 0 29.002 30.999">
    <path d="m-67.838-.33-3.268 15.23 1.963 9.562h2.44a1.92 1.92 0 0 0 1.968-2.2L-67.491.611a2.392 2.392 0 0 0-.345-.956.046.046 0 0 1 0 .016" transform="translate(93.217 2.139)" style="fill-rule:evenodd;fill:#ce7120"/>
    <path d="M0-29.06v1.995a.475.475 0 0 0 .47.479h2.972a.475.475 0 0 0 .468-.479v-1.995l-2.063-1.427z" transform="translate(18.206 57.086)" style="fill-rule:evenodd;fill:#ce7120"/>
    <path d="M0-23.182v1.995a.475.475 0 0 0 .468.479H3.44a.475.475 0 0 0 .47-.479v-1.995L1.8-24.32z" transform="translate(2.567 51.207)" style="fill-rule:evenodd;fill:#ce7120"/>
    <path d="m-27.254-26.733-1.311 25a1.2 1.2 0 0 0 1.22 1.263h21A1.364 1.364 0 0 0-5-1.734l.005-.112 1.305-24.887v-.016A1.2 1.2 0 0 0-4.905-28h-21a1.365 1.365 0 0 0-1.353 1.264" transform="translate(29.067 28.497)" style="fill:#f9d366;fill-rule:evenodd"/>
    <path d="M0-79.331c1.7-.041 3.065-1.086 3.19-2.093.114-.923-.345-1.8-1.072-1.8H1.2" transform="translate(16.869 94.312)" style="fill:none;stroke:#000;stroke-linecap:round;stroke-linejoin:round;stroke-miterlimit:10"/>
    <path d="M-15.516 0c-1.429 1.331.511 2.552-.642 3.558" transform="translate(28.793 4.136)" style="fill:none;stroke:#000;stroke-linecap:round;stroke-linejoin:round;stroke-miterlimit:10"/>
    <path data-name="path4142" d="M-15.359.046C-16.788 1.377-14.848 2.6-16 3.6" transform="translate(30.473 4.159)" style="fill:none;stroke:#000;stroke-linecap:round;stroke-linejoin:round;stroke-miterlimit:10"/>
    <path d="M0 0h12.335" transform="translate(6.391 20.095)" style="fill:none;stroke:#000;stroke-linecap:round;stroke-linejoin:round;stroke-miterlimit:10"/>
    <path d="M0 0h15.6" transform="translate(4.463 23.383)" style="fill:none;stroke:#000;stroke-linecap:round;stroke-linejoin:round;stroke-miterlimit:10"/>
    <path d="M-.1-14.712c-.085 2.227.947 5.158 2.591 6.152h5.165a5.351 5.351 0 0 0 1.824-2 9.689 9.689 0 0 0 1.22-3.919 4.77 4.77 0 0 0 .014-.235c.026-.425-.15-.72-.565-.72H.444a.564.564 0 0 0-.537.557z" transform="translate(7.393 25.535)" style="fill:#fff;fill-rule:evenodd"/>
    <path d="M-15.516 0c-1.429 1.331.511 2.552-.642 3.558" transform="translate(26.927 4.136)" style="fill:none;stroke:#000;stroke-linecap:round;stroke-linejoin:round;stroke-miterlimit:10"/>
    <path d="m-55.308-26.733-.7 13.369-.164 3.124-.44 8.394-.005.112a1.315 1.315 0 0 1-.4.866 1.362 1.362 0 0 1-.956.4h2.156a1.365 1.365 0 0 0 1.354-1.264l.005-.112 1.306-24.887v-.016A1.2 1.2 0 0 0-54.372-28h-2.158a1.2 1.2 0 0 1 1.222 1.248z" transform="translate(78.534 28.497)" style="fill:#f1c346;fill-rule:evenodd"/>
    <path d="M-130.48 0h3.968c.416 0 .592.3.565.72-.086 2.228-1.34 5.16-3.06 6.155m-5.165 0c-1.644-.995-2.676-3.925-2.591-6.153l.007-.165a.564.564 0 0 1 .537-.557h5.739" transform="translate(144.055 10.101)" style="fill:none;stroke:#000;stroke-linecap:round;stroke-linejoin:round;stroke-miterlimit:10"/>
    <path d="m-16.184-241.99-.778 14.823a1.2 1.2 0 0 0 1.219 1.264h21a1.364 1.364 0 0 0 1.353-1.264l1.311-25A1.2 1.2 0 0 0 6.7-253.43h-21a1.364 1.364 0 0 0-1.353 1.264l-.533 10.176" transform="translate(17.464 253.93)" style="fill:none;stroke:#000;stroke-linecap:round;stroke-linejoin:round;stroke-miterlimit:10"/>
    <path d="M0-526.866h2.44a1.92 1.92 0 0 0 1.968-2.2l-2.755-21.65a2.392 2.392 0 0 0-.345-.956v.016" transform="translate(24.075 553.466)" style="fill:none;stroke:#000;stroke-linecap:round;stroke-linejoin:round;stroke-miterlimit:10"/>
    <path d="M.028.121h9.978" transform="translate(7.579 16.905)" style="fill:none;stroke:#000;stroke-linecap:round;stroke-linejoin:round;stroke-miterlimit:10"/>
    <path d="M0 0h3.91v1.995a.475.475 0 0 1-.47.479H.468A.475.475 0 0 1 0 1.995z" transform="translate(2.567 28.026)" style="fill:none;stroke:#000;stroke-linecap:round;stroke-linejoin:round;stroke-miterlimit:10"/>
    <path d="M0 0h3.91v1.995a.475.475 0 0 1-.468.479H.47A.475.475 0 0 1 0 1.995z" transform="translate(18.206 28.026)" style="fill:none;stroke:#000;stroke-linecap:round;stroke-linejoin:round;stroke-miterlimit:10"/>
</svg>
