<svg xmlns="http://www.w3.org/2000/svg" width="28" height="35" viewBox="0 0 28 35">
    <path data-name="사각형 13481" transform="translate(11.75 16.835)" style="fill:#beabff" d="M0 0h13.5v17.383H0z"/>
    <path data-name="사각형 13482" transform="translate(17.527 13.317)" style="fill:#fff" d="M0 0h1.95v3.679H0z"/>
    <path data-name="패스 13839" d="M211 215.978v9.462a1.117 1.117 0 0 0 1.125 1.109 1.117 1.117 0 0 0 1.125-1.109v-5.4a1.117 1.117 0 0 1 1.125-1.109c.621 0 1.323.349 1.323.961v.222c0 .278-.094.678.077.873a1.128 1.128 0 0 0 .85.384 1.117 1.117 0 0 0 1.125-1.109v-1.7a1.117 1.117 0 0 1 1.125-1.109 1.117 1.117 0 0 1 1.125 1.113v3.918a1.117 1.117 0 0 0 1.125 1.109 1.117 1.117 0 0 0 1.125-1.109v-.961a1.117 1.117 0 0 1 1.125-1.109 1.117 1.117 0 0 1 1.125 1.109v4.657a1.117 1.117 0 0 0 1.125 1.109 1.117 1.117 0 0 0 1.125-1.109v-10.2a1.489 1.489 0 0 0-1.5-1.478h-8.625l-1.111.228-3.014-.23a1.489 1.489 0 0 0-1.5 1.478z" transform="translate(-200.374 -198.015)" style="fill:#fff"/>
    <path data-name="패스 13840" d="M301.806 464.5H292.6l-1.158.274-.551-.018-.405 2.4.426-.021.889.324h8.808a.793.793 0 0 0 .769-.536l.661-2.138a.226.226 0 0 0-.233-.285z" transform="translate(-274.62 -432.957)" style="fill:#f9d366"/>
    <path data-name="사각형 13483" transform="translate(4.357 11.887)" style="fill:#beabff" d="M0 0h8.52v22.142H0z"/>
    <path data-name="사각형 13485" transform="translate(7.401 6.775)" style="fill:#fff" d="M0 0h1.95v3.679H0z"/>
    <path data-name="패스 13844" d="m108.1 126.145-.339 6.24a.926.926 0 0 0 1.006.991c.621 0 .847-.421.847-1.033l.106-4.122a.91.91 0 0 1 1.284-.764 1.117 1.117 0 0 1 1.125 1.109v1.7a1.117 1.117 0 0 0 1.125 1.109 1.117 1.117 0 0 0 1.125-1.109v-.966a1.117 1.117 0 0 1 1.121-1.1 1.117 1.117 0 0 1 1.125 1.109v6.135a1.117 1.117 0 0 0 1.125 1.109 1.117 1.117 0 0 0 1.125-1.109v-9.461a1.489 1.489 0 0 0-1.5-1.478H111l-1.4.166a1.489 1.489 0 0 0-1.5 1.474z" transform="translate(-104.88 -114.645)" style="fill:#fff"/>
    <path data-name="패스 13845" d="M109.375 124.5v2.957a1.117 1.117 0 0 0-1.125 1.109v3.918a1.1 1.1 0 0 1-.33.784 1.128 1.128 0 0 1-1.92-.784v-6.5a1.483 1.483 0 0 1 1.125-1.432 1.533 1.533 0 0 1 .375-.046z" transform="translate(-103.248 -114.641)" style="fill:#fff"/>
    <path data-name="패스 13847" d="M94.247 467.457h-10.29l-2.622-.251a.748.748 0 0 1-.728-.56l-.458-1.694a.223.223 0 0 1 .218-.276l2.839-.176h12.088a.222.222 0 0 1 .218.275l-.538 2.121a.748.748 0 0 1-.727.561z" transform="translate(-79.332 -432.957)" style="fill:#f9d366"/>
    <path data-name="선 66" transform="translate(17.525 14.108)" style="stroke-linejoin:round;stroke-miterlimit:10;fill:none;stroke:#000;stroke-linecap:round" d="M0 2.365V0"/>
    <path data-name="선 67" transform="translate(19.475 14.108)" style="stroke-linejoin:round;stroke-miterlimit:10;fill:none;stroke:#000;stroke-linecap:round" d="M0 0v2.365"/>
    <path data-name="선 68" transform="translate(25.248 29.297)" style="stroke-linejoin:round;stroke-miterlimit:10;fill:none;stroke:#000;stroke-linecap:round" d="M0 0v2.21"/>
    <path data-name="패스 13850" d="M268.65 222.791v-6.812a1.489 1.489 0 0 0-1.5-1.478H256.3" transform="translate(-242.276 -198.006)" style="stroke-linejoin:round;stroke-miterlimit:10;fill:none;stroke:#000;stroke-linecap:round"/>
    <path data-name="패스 13851" d="M255.925 255.978h.006a1.117 1.117 0 0 1 1.125 1.109v.222a1.117 1.117 0 0 0 1.125 1.109h0a1.117 1.117 0 0 0 1.125-1.109v-1.7a1.117 1.117 0 0 1 1.125-1.109h0a1.117 1.117 0 0 1 1.125 1.109v3.918a1.117 1.117 0 0 0 1.125 1.109h0a1.117 1.117 0 0 0 1.125-1.109v-.961a1.117 1.117 0 0 1 1.125-1.109h0a1.117 1.117 0 0 1 1.125 1.109v4.657a1.117 1.117 0 0 0 1.125 1.109h0a1.117 1.117 0 0 0 1.125-1.109v-4.266" transform="translate(-241.931 -235.058)" style="stroke-linejoin:round;stroke-miterlimit:10;fill:none;stroke:#000;stroke-linecap:round"/>
    <path data-name="패스 13852" d="M268.373 464.5h12.4l-.7 2.421a.749.749 0 0 1-.721.536h-11.16" transform="translate(-253.278 -432.96)" style="stroke-linejoin:round;stroke-miterlimit:10;fill:none;stroke:#000;stroke-linecap:round"/>
    <path data-name="선 70" transform="translate(7.399 7.467)" style="stroke-linejoin:round;stroke-miterlimit:10;fill:none;stroke:#000;stroke-linecap:round" d="M0 2.365V0"/>
    <path data-name="선 71" transform="translate(9.349 7.467)" style="stroke-linejoin:round;stroke-miterlimit:10;fill:none;stroke:#000;stroke-linecap:round" d="M0 0v2.365"/>
    <path data-name="선 72" transform="translate(3.875 18.945)" style="stroke-linejoin:round;stroke-miterlimit:10;fill:none;stroke:#000;stroke-linecap:round" d="M0 12.596V0"/>
    <path data-name="패스 13856" d="M0 0v9.2" transform="translate(12.876 21.98)" style="fill:none;stroke:#000;stroke-linecap:round"/>
    <g data-name="그룹 21934">
        <path data-name="패스 13841" d="M159.667 13.667a3.113 3.113 0 0 1-.08.706s-.262.419-.384.643a2.333 2.333 0 0 1-2.281 1.173 2.229 2.229 0 0 1-2.43-2.491 5.635 5.635 0 0 1 .932-3.054c.318-.479.822-1.249.822-1.249.191-.221.357-.4.477-.525a.277.277 0 0 1 .4 0c.63.656 2.544 2.808 2.544 4.797z" transform="translate(-148.545 -8.17)" style="fill:#f9d366"/>
        <path data-name="패스 13853" d="M156.548 12.5a2.747 2.747 0 1 1-5.49 0c0-2.382 2.745-5 2.745-5s2.745 2.616 2.745 5z" transform="translate(-145.426 -7)" style="stroke-linejoin:round;stroke-miterlimit:10;fill:none;stroke:#000;stroke-linecap:round"/>
    </g>
    <g data-name="그룹 21935">
        <path data-name="패스 13841" d="M159.667 13.667a3.113 3.113 0 0 1-.08.706s-.262.419-.384.643a2.333 2.333 0 0 1-2.281 1.173 2.229 2.229 0 0 1-2.43-2.491 5.635 5.635 0 0 1 .932-3.054c.318-.479.822-1.249.822-1.249.191-.221.357-.4.477-.525a.277.277 0 0 1 .4 0c.63.656 2.544 2.808 2.544 4.797z" transform="translate(-138.421 -1.552)" style="fill:#f9d366"/>
        <path data-name="패스 13853" d="M156.548 12.5a2.747 2.747 0 1 1-5.49 0c0-2.382 2.745-5 2.745-5s2.745 2.616 2.745 5z" transform="translate(-135.302 -.382)" style="stroke-linejoin:round;stroke-miterlimit:10;fill:none;stroke:#000;stroke-linecap:round"/>
    </g>
    <path data-name="패스 13854" d="M106 130.414v2.069a1.117 1.117 0 0 0 1.125 1.109h0a1.117 1.117 0 0 0 1.125-1.109v-3.918a1.117 1.117 0 0 1 1.125-1.109h0a1.117 1.117 0 0 1 1.125 1.109v1.7a1.117 1.117 0 0 0 1.125 1.109h0a1.117 1.117 0 0 0 1.125-1.109v-.965a1.117 1.117 0 0 1 1.125-1.109h0A1.117 1.117 0 0 1 115 129.3v6.135a1.117 1.117 0 0 0 1.125 1.109h0a1.117 1.117 0 0 0 1.125-1.109v-9.461a1.489 1.489 0 0 0-1.5-1.478h-8.25a1.489 1.489 0 0 0-1.5 1.478v5.148" transform="translate(-103.25 -114.645)" style="stroke-linejoin:round;stroke-miterlimit:10;fill:none;stroke:#000;stroke-linecap:round"/>
    <path data-name="패스 13855" d="M90.414 467.457H77.336a.748.748 0 0 1-.728-.56L76 464.5h15.75l-.608 2.4a.748.748 0 0 1-.728.557z" transform="translate(-75.5 -432.957)" style="stroke-linejoin:round;stroke-miterlimit:10;fill:none;stroke:#000;stroke-linecap:round"/>
</svg>
