<svg xmlns="http://www.w3.org/2000/svg" width="33" height="34.001" viewBox="0 0 33 34.001">
    <path data-name="패스 11495" d="m13.16.4 1.423 2.769 3.112.476-2.234 2.188.5 3.064L13.16 7.48 10.357 8.9l.5-3.064-2.232-2.191 3.112-.476z" transform="translate(3.339 .1)" style="stroke:#000;fill:#f9d366;stroke-linecap:round;stroke-linejoin:round"/>
    <path data-name="패스 11497" d="M2.225 3.606 5 5.071 7.831 3.7l-.556 3.057 2.2 2.227-3.122.423-1.475 2.743L3.5 9.358.4 8.827l2.273-2.15z" transform="translate(.101 1.296)" style="stroke:#000;fill:#f9d366;stroke-linecap:round;stroke-linejoin:round"/>
    <path data-name="패스 11499" d="m24.095 3.606-2.778 1.465L18.489 3.7l.556 3.054-2.2 2.227 3.122.423 1.47 2.744 1.374-2.792 3.1-.531-2.273-2.15z" transform="translate(6.579 1.296)" style="stroke:#000;fill:#f9d366;stroke-linecap:round;stroke-linejoin:round"/>
    <path data-name="패스 11500" d="M9.3 29.422H6.063a1.693 1.693 0 0 1-1.706-1.68V16.607a1.694 1.694 0 0 1 1.706-1.682H9.3a1.694 1.694 0 0 1 1.706 1.682v11.135a1.693 1.693 0 0 1-1.706 1.68" transform="translate(1.659 4.079)" style="fill:#7acfa5;stroke:#000"/>
    <path data-name="패스 11501" d="m23.412 20.129-1.459 8.5a2.483 2.483 0 0 1-2.438 2.027h-.052l-5.635-.108a10.654 10.654 0 0 1-3.813-.98 4.865 4.865 0 0 0-.885-.233V18.168a2.521 2.521 0 0 0 .6-.483 11.9 11.9 0 0 0 2.785-5.159 1.592 1.592 0 0 1 1.585-1.313 3.034 3.034 0 0 1 2.184.914 2.862 2.862 0 0 1 .836 2.136 11.673 11.673 0 0 1-.718 3.124l4.513-.1a2.526 2.526 0 0 1 1.923.839 2.407 2.407 0 0 1 .574 2" transform="translate(3.539 2.698)" style="fill:#ffe5d8;stroke:#000"/>
</svg>
