<svg xmlns="http://www.w3.org/2000/svg" width="38.918" height="27.104" viewBox="0 0 38.918 27.104">
    <g data-name="그룹 32088">
        <path data-name="합치기 53" d="M5.88 6.725H.775L0 6.263V3.19A3.2 3.2 0 0 1 3.217 0h4.824a1.394 1.394 0 0 1 1.4 1.385.47.47 0 0 0 .472.469h.045a1.393 1.393 0 0 1 1.4 1.385v3.024l-.781.462z" transform="translate(21.79 .554)" style="fill:#f9d366"/>
        <path data-name="패스 18086" d="M16.527 10.58H0V5.01a3.839 3.839 0 0 1 2.774-3.678L7.4 0h7.2l4.6 1.332A3.858 3.858 0 0 1 22 5.01v5.57z" transform="translate(16.476 15.824)" style="fill:#beabff"/>
        <path data-name="패스 18069" d="m355.407 338.535-1.692-5.754h-1.833l-1.692 5.754z" transform="translate(-325.33 -312.116)" style="fill:#f9d366"/>
        <g data-name="그룹 32000">
            <g data-name="그룹 31999">
                <g data-name="그룹 31998">
                    <g data-name="그룹 31997">
                        <g data-name="그룹 31996">
                            <g data-name="그룹 31995">
                                <g data-name="그룹 31994">
                                    <path data-name="패스 18070" d="M356.2 241.347v-4.021h-5.06v4.021c0 1.382 2.53 1.5 2.53 1.5s2.53-.118 2.53-1.5z" transform="translate(-326.2 -224.603)" style="fill:#ffe5d8"/>
                                </g>
                            </g>
                        </g>
                    </g>
                </g>
            </g>
        </g>
        <path data-name="합치기 54" d="M4.594 9.274c-.076-.017-.149-.037-.223-.057a.094.094 0 0 1-.022-.008c-.013 0-.024-.008-.039-.01-.04-.014-.084-.024-.124-.04A4.67 4.67 0 0 1 .979 5.037a.241.241 0 0 0-.243-.229A.731.731 0 0 1 0 4.082V2.506h.972a.97.97 0 0 0 .972-.96v-.532a1.021 1.021 0 0 1 1.35-.96A7.78 7.78 0 0 0 5.886.43 7.561 7.561 0 0 0 8.073.055a1.021 1.021 0 0 1 1.35.96v.532a.972.972 0 0 0 .979.96h.966v1.575a.73.73 0 0 1-.734.726.246.246 0 0 0-.244.229A4.689 4.689 0 0 1 5.687 9.4a4.769 4.769 0 0 1-1.093-.126z" transform="translate(21.786 4.31)" style="fill:#ffe5d8"/>
        <g data-name="그룹 32004">
            <path data-name="패스 18074" d="m327.418 270.593-.721.32a.633.633 0 0 0-.192 1.031l2 1.976a.7.7 0 0 0 .923.035l1.565-1.292-2.668-1.971a.9.9 0 0 0-.907-.099z" transform="translate(-303.464 -255.029)" style="fill:#beabff"/>
            <path data-name="패스 18075" d="m384.429 270.739-2.558 1.959 1.471 1.243a.7.7 0 0 0 .925-.026l2-1.923a.633.633 0 0 0-.187-1.038l-.735-.324a.9.9 0 0 0-.916.109z" transform="translate(-354.346 -255.063)" style="fill:#beabff"/>
        </g>
        <path data-name="패스 18085" d="m362.579 297.584-1.471-1.243-1.565 1.292a.692.692 0 0 1-.341.151l.934 1.586h1.833l.924-1.637a.689.689 0 0 1-.314-.149z" transform="translate(-333.583 -278.708)" style="fill:#f9d366"/>
        <path d="M-27.949-77.158v-.524a1.02 1.02 0 0 1 1.342-.959h0a7.645 7.645 0 0 0 4.746 0 1.019 1.019 0 0 1 1.342.959v.523a.962.962 0 0 0 .967.956h.961v-3a1.382 1.382 0 0 0-1.39-1.375h-.047a.467.467 0 0 1-.47-.464 1.383 1.383 0 0 0-1.39-1.375h-4.791a3.182 3.182 0 0 0-3.2 3.164v3.053h.961a.962.962 0 0 0 .969-.958z" transform="translate(51.632 83.072)" style="fill:none;stroke:#000;stroke-linecap:round;stroke-linejoin:round;stroke-miterlimit:10;stroke-width:1.2px"/>
        <path d="M-10.611-70.113h0a.239.239 0 0 1 .239.225A4.66 4.66 0 0 0-5.7-65.554a4.66 4.66 0 0 0 4.673-4.335.239.239 0 0 1 .239-.225.728.728 0 0 0 .732-.724V-72.4h-.961a.962.962 0 0 1-.967-.956v-.523a1.019 1.019 0 0 0-1.342-.959 7.646 7.646 0 0 1-4.746 0h0a1.02 1.02 0 0 0-1.342.959v.524a.962.962 0 0 1-.967.956h-.961v1.564a.728.728 0 0 0 .731.722z" transform="translate(33.096 79.266)" style="fill:none;stroke:#000;stroke-linecap:round;stroke-linejoin:round;stroke-miterlimit:10;stroke-width:1.2px"/>
        <path d="M-93.295-73.485v-3.449a3.814 3.814 0 0 0-2.766-3.654l-3.67-1.065" transform="translate(131.613 97.732)" style="fill:none;stroke:#000;stroke-linecap:round;stroke-linejoin:round;stroke-miterlimit:10;stroke-width:1.2px"/>
        <path d="m-93.61 0-3.69 1.071a3.814 3.814 0 0 0-2.767 3.654v5.326q.058.128.105.261h21.737V8.2" transform="translate(116.543 16.074)" style="fill:none;stroke:#000;stroke-linecap:round;stroke-linejoin:round;stroke-miterlimit:10;stroke-width:1.2px"/>
        <path d="m-15.853-1.132-.716.318a.629.629 0 0 0-.19 1.024l1.982 1.963a.69.69 0 0 0 .916.034l1.554-1.283-2.65-1.958a.9.9 0 0 0-.896-.098z" transform="translate(39.758 16.686)" style="fill:none;stroke:#000;stroke-linecap:round;stroke-linejoin:round;stroke-miterlimit:10;stroke-width:1.2px"/>
        <path d="m-36.834-2.7-2.541 1.945L-37.914.48a.69.69 0 0 0 .919-.026l1.983-1.909a.629.629 0 0 0-.188-1.031l-.73-.321a.9.9 0 0 0-.904.107z" transform="translate(66.825 18.362)" style="fill:none;stroke:#000;stroke-linecap:round;stroke-linejoin:round;stroke-miterlimit:10;stroke-width:1.2px"/>
        <path d="M0-.734.928.842h1.82l.918-1.626" transform="translate(25.556 19.774)" style="fill:none;stroke:#000;stroke-linecap:round;stroke-linejoin:round;stroke-miterlimit:10;stroke-width:1.2px"/>
        <path d="m-18.97 0-1.309 5.769" transform="translate(45.453 20.617)" style="fill:none;stroke:#000;stroke-linecap:round;stroke-linejoin:round;stroke-miterlimit:10;stroke-width:1.2px"/>
        <path d="m-18.97-84.649-1.309-5.769" transform="translate(48.585 111.035)" style="fill:none;stroke:#000;stroke-linecap:round;stroke-linejoin:round;stroke-miterlimit:10;stroke-width:1.2px"/>
        <path d="M0 0v2.722" transform="translate(24.885 12.994)" style="fill:none;stroke:#000;stroke-linecap:round;stroke-linejoin:round;stroke-miterlimit:10;stroke-width:1.2px"/>
        <path d="M0-40.13v-2.735" transform="translate(29.91 55.86)" style="fill:none;stroke:#000;stroke-linecap:round;stroke-linejoin:round;stroke-miterlimit:10;stroke-width:1.2px"/>
    </g>
    <g data-name="그룹 32087">
        <path data-name="패스 18076" d="M121.733 402.644z" transform="translate(-111.992 -384.329)" style="fill:#ddb7a0"/>
        <g data-name="그룹 32019">
            <g data-name="그룹 32018">
                <g data-name="그룹 32017">
                    <g data-name="그룹 32016">
                        <g data-name="그룹 32015">
                            <g data-name="그룹 32014">
                                <g data-name="그룹 32013">
                                    <g data-name="그룹 32012">
                                        <g data-name="그룹 32011">
                                            <g data-name="그룹 32010">
                                                <g data-name="그룹 32009">
                                                    <g data-name="그룹 32008">
                                                        <g data-name="그룹 32007">
                                                            <g data-name="그룹 32006">
                                                                <path data-name="패스 18078" d="M102.351 330.214v-3.541H97.9v3.541c0 1.217 2.228 1.325 2.228 1.325s2.223-.108 2.223-1.325z" transform="translate(-89.97 -314.077)" style="fill:#ffe5d8"/>
                                                            </g>
                                                        </g>
                                                    </g>
                                                </g>
                                            </g>
                                        </g>
                                    </g>
                                </g>
                            </g>
                        </g>
                    </g>
                </g>
            </g>
        </g>
        <path data-name="합치기 52" d="M4.157 13.689a.033.033 0 0 0 .017 0 14.68 14.68 0 0 1-2.416-.609A2.59 2.59 0 0 1 0 10.63a6.271 6.271 0 0 1 .264-1.8 10.138 10.138 0 0 0 .445-2.966A5.863 5.863 0 0 1 4.158.537 5.965 5.965 0 0 1 6.64 0a5.9 5.9 0 0 1 5.929 5.864 10.391 10.391 0 0 0 .438 2.968 6.024 6.024 0 0 1 .272 1.8 2.607 2.607 0 0 1-1.765 2.455 15.067 15.067 0 0 1-4.872.811 14.933 14.933 0 0 1-2.485-.209z" transform="translate(3.516 .551)" style="fill:#beabff"/>
        <path data-name="합치기 56" d="M0 9.689V4.2A3.382 3.382 0 0 1 2.45.957l5-.957v.014a2.392 2.392 0 0 0 2.65 1.454A2.331 2.331 0 0 0 11.9.014l5 .943A3.393 3.393 0 0 1 19.365 4.2v6.337a.747.747 0 0 1-.735.734H14.4L1.626 11.3A1.62 1.62 0 0 1 0 9.689z" transform="translate(.474 15.247)" style="fill:#f9d366"/>
        <path d="M-106.227 0h0a5.858 5.858 0 0 0-5.89 5.822v0a10.152 10.152 0 0 1-.437 2.943 6.173 6.173 0 0 0-.266 1.79 2.576 2.576 0 0 0 1.749 2.432 14.927 14.927 0 0 0 9.688 0 2.576 2.576 0 0 0 1.749-2.432 6.177 6.177 0 0 0-.266-1.79 10.154 10.154 0 0 1-.437-2.943v0A5.857 5.857 0 0 0-106.227 0z" transform="translate(116.446 .6)" style="fill:none;stroke:#000;stroke-linecap:round;stroke-linejoin:round;stroke-miterlimit:10;stroke-width:1.2px"/>
        <path d="M-309.924-170.579v-6.293a3.314 3.314 0 0 0-.2-1.122q-.043-.12-.1-.237a3.379 3.379 0 0 0-2.145-1.858l-4.969-.936a2.392 2.392 0 0 1-4.421 0l-.005-.013-4.967.95a3.359 3.359 0 0 0-2.436 3.218v5.455a1.609 1.609 0 0 0 1.621 1.6l16.88-.034h.028a.731.731 0 0 0 .714-.73z" transform="translate(329.759 196.234)" style="fill:none;stroke:#000;stroke-linecap:round;stroke-linejoin:round;stroke-miterlimit:10;stroke-width:1.2px"/>
        <path d="M0 0v.964l.005.013" transform="translate(8.006 14.229)" style="fill:none;stroke:#000;stroke-linecap:round;stroke-linejoin:round;stroke-miterlimit:10;stroke-width:1.2px"/>
        <path d="M0-15.946h0v-.978" transform="translate(12.432 31.153)" style="fill:none;stroke:#000;stroke-linecap:round;stroke-linejoin:round;stroke-miterlimit:10;stroke-width:1.2px"/>
    </g>
</svg>
