<svg xmlns="http://www.w3.org/2000/svg" width="30.03" height="33.182" viewBox="0 0 30.03 33.182">
    <path d="M-40.937-59.675a1.052 1.052 0 0 1-1.475.12 1.1 1.1 0 0 1-.409-.4c-.458-.789.208-2.07 1.165-2.532a1.652 1.652 0 0 1 .719-.173 1.875 1.875 0 0 1 1.214.506 2.064 2.064 0 0 1 .759 2 1.069 1.069 0 0 1-.5.6 1.052 1.052 0 0 1-1.475-.12" transform="translate(55.207 81.155)" style="fill-rule:evenodd;fill:#7acfa5"/>
    <path d="M-6.046-48.609c-1-1.006.7-2.741 2.026-2.384s1.935 2.717.572 3.085c-.762.206-1.111-.125-1.271-.457a.959.959 0 0 1-1.327-.245" transform="translate(24.353 75.455)" style="fill:#f9d366;fill-rule:evenodd"/>
    <path d="M-25.152-.886c1.231-.332 2.816 1.284 1.887 2.22a.894.894 0 0 1-1.236.228c-.149.309-.474.617-1.183.425-1.27-.343-.7-2.541.532-2.873" transform="translate(34.209 24.54)" style="fill:#f9d366;fill-rule:evenodd"/>
    <path d="M-156.055-350.38c4.266 0 7.744-3.937 7.744-8.763s-3.479-8.763-7.744-8.763-7.744 3.936-7.744 8.763 3.479 8.763 7.744 8.763" transform="translate(170.326 368.406)" style="fill-rule:evenodd;fill:#7acfa5"/>
    <path d="M-182.764-4.356a6.042 6.042 0 0 0-2.475-.172c.034.35.052.705.052 1.066 0 4.625-2.89 8.451-6.647 9.082q.048.315.117.622a2.216 2.216 0 0 1 .759 2.094 6.718 6.718 0 0 0 4.09 3.467c3.767 1.065 7.739-1.69 8.872-6.152s-1-8.942-4.768-10.007" transform="translate(207.203 12.775)" style="fill:#f9d366;fill-rule:evenodd"/>
    <path d="M-95.173-3.991c-3.508.947-5.5 4.932-4.44 8.9s4.755 6.419 8.262 5.472a6.071 6.071 0 0 0 3.33-2.328c-.458-.789.208-2.07 1.165-2.532q.025-.1.048-.207c-3.963-.385-7.074-4.146-7.074-8.73 0-.261.011-.52.031-.776a5.867 5.867 0 0 0-1.322.2" transform="translate(100.407 13.039)" style="fill:#f9d366;fill-rule:evenodd"/>
    <path d="M-156.055-350.38c4.266 0 7.744-3.937 7.744-8.763s-3.479-8.763-7.744-8.763-7.744 3.936-7.744 8.763 3.478 8.763 7.744 8.763z" transform="translate(170.326 368.406)" style="fill:none;stroke:#000;stroke-linecap:round;stroke-linejoin:round;stroke-miterlimit:2.613"/>
    <path d="M-40.942 0c1.5 0 2.816 2.325 1.475 3.105a1.052 1.052 0 0 1-1.475-.12 1.052 1.052 0 0 1-1.475.12C-43.757 2.325-42.443 0-40.942 0z" transform="translate(55.211 18.495)" style="fill:none;stroke:#000;stroke-linecap:round;stroke-linejoin:round;stroke-miterlimit:2.613"/>
    <path d="M-.562 0c-.29 1.553 1.817 7.572 0 10.743" transform="translate(14.833 21.757)" style="fill:none;stroke:#000;stroke-linecap:round;stroke-linejoin:round;stroke-miterlimit:2.613"/>
    <path d="M0-246.142a6.719 6.719 0 0 0 4.09 3.467c3.767 1.065 7.739-1.69 8.872-6.152s-1-8.942-4.768-10.007a6.042 6.042 0 0 0-2.475-.172" transform="translate(16.245 267.254)" style="fill:none;stroke:#000;stroke-linecap:round;stroke-linejoin:round;stroke-miterlimit:2.613"/>
    <path d="M-46.875-.952c1.322.357 1.935 2.717.572 3.085-.762.206-1.111-.125-1.271-.457a.959.959 0 0 1-1.326-.244c-1-1.005.7-2.741 2.025-2.384z" transform="translate(67.209 25.414)" style="fill:none;stroke:#000;stroke-linecap:round;stroke-linejoin:round;stroke-miterlimit:2.613"/>
    <path d="M-12.478 0a27.907 27.907 0 0 0-.622 4.387" transform="translate(32.114 27.217)" style="fill:none;stroke:#000;stroke-linecap:round;stroke-linejoin:round;stroke-miterlimit:2.613"/>
    <path d="M-17.461-64.308c-4.686 1.676-4.619 6.61-4.043 8.779 1.055 3.969 4.755 6.419 8.262 5.472a6.071 6.071 0 0 0 3.33-2.328m-9.764-10.549 3.934-1.7a5.869 5.869 0 0 0-1.322.2q-.2.055-.4.122" transform="translate(22.299 73.48)" style="fill:none;stroke:#000;stroke-linecap:round;stroke-linejoin:round;stroke-miterlimit:2.613"/>
    <path d="M-25.152-.886c1.231-.332 2.816 1.284 1.887 2.22a.893.893 0 0 1-1.236.228c-.149.309-.474.617-1.184.425-1.269-.343-.699-2.541.533-2.873z" transform="translate(34.209 24.54)" style="fill:none;stroke:#000;stroke-linecap:round;stroke-linejoin:round;stroke-miterlimit:2.613"/>
    <path d="M0 0a9.5 9.5 0 0 1 .405 5.033" transform="translate(9.709 26.254)" style="fill:none;stroke:#000;stroke-linecap:round;stroke-linejoin:round;stroke-miterlimit:2.613"/>
</svg>
