<svg xmlns="http://www.w3.org/2000/svg" width="35" height="33.095" viewBox="0 0 35 33.095">
    <g data-name="그룹 26857">
        <g data-name="그룹 26858">
            <path d="M-47.056-584.892a64.809 64.809 0 0 1-2.588-8.508l1.418-.81-.2-2.8a12.359 12.359 0 0 1 .995-6.359c1.383-3.753 3.671-9.2 4.087-10.415.626-1.763 3.187-1.2 2.711.977l-1.691 7.127a1.128 1.128 0 0 1 .564-.089 1.37 1.37 0 0 1 1.253 1.475c-.065.713-.549 5.039-.614 5.752-.286 3.146 2.791 7.843-2.817 11.834a32.575 32.575 0 0 1-3.116 1.813" transform="translate(58.046 615.363)" style="fill-rule:evenodd;fill:#ffe5d8"/>
            <path d="M-58.927 0a65.526 65.526 0 0 0 2.588 8.561 19.063 19.063 0 0 0 1.047 2.065h-4.2a61.918 61.918 0 0 1-2.677-8.763z" transform="translate(67.33 21.91)" style="fill:#f9d366;fill-rule:evenodd"/>
            <path d="M-84.71 0a61.915 61.915 0 0 0 2.677 8.763h-7.336V2.678z" transform="translate(89.872 23.77)" style="fill:#beabff;fill-rule:evenodd"/>
            <path d="M-113.4-583.973a31.1 31.1 0 0 0 3.027-1.765c3.861-3.07 3.451-8.671 3.431-11.76 0-.769-.065-5.119 0-5.833a1.37 1.37 0 0 0-1.253-1.475c-.757-.067-1.206.543-1.5 1.233-.675 1.586-.553 3.894-.679 6.075m1.619-7.24 1.686-7.109c.475-2.175-2.085-2.74-2.711-.977-.416 1.212-2.7 6.665-4.087 10.42a12.369 12.369 0 0 0-.994 6.361l.2 2.8-9.318 5.324v6.05h11.535c-1.745-2.963-2.32-5.737-3.594-10.415" transform="translate(124.475 614.405)" style="stroke-miterlimit:2.613;fill:none;stroke:#000;stroke-linecap:round;stroke-linejoin:round" data-name="그룹 26856"/>
            <path d="M0 0a61.767 61.767 0 0 0 2.589 8.5" transform="translate(5.207 23.937)" style="stroke-miterlimit:22.926;fill:none;stroke:#000;stroke-linecap:round;stroke-linejoin:round"/>
        </g>
        <g data-name="그룹 26859">
            <path data-name="path1738" d="M-43.092-584.893A64.816 64.816 0 0 0-40.5-593.4l-1.418-.81.2-2.8a12.36 12.36 0 0 0-.995-6.358c-1.383-3.753-3.671-9.2-4.087-10.415-.626-1.763-3.187-1.2-2.711.977l1.691 7.127a1.125 1.125 0 0 0-.564-.089 1.37 1.37 0 0 0-1.253 1.475c.065.713.549 5.039.614 5.752.286 3.146-2.791 7.843 2.817 11.834a32.585 32.585 0 0 0 3.116 1.813" transform="translate(67.102 615.363)" style="fill-rule:evenodd;fill:#ffe5d8"/>
            <path data-name="path1742" d="M-58.533 0a65.525 65.525 0 0 1-2.588 8.561 19.061 19.061 0 0 1-1.047 2.065h4.2a61.916 61.916 0 0 0 2.677-8.763z" transform="translate(85.13 21.91)" style="fill:#f9d366;fill-rule:evenodd"/>
            <path data-name="path1746" d="M-86.692 0a61.912 61.912 0 0 1-2.677 8.763h7.336V2.678z" transform="translate(116.53 23.77)" style="fill:#beabff;fill-rule:evenodd"/>
            <g data-name="그룹 26856">
                <path data-name="path1750" d="M-117.5-583.974a31.088 31.088 0 0 1-3.027-1.765c-3.861-3.07-3.45-8.671-3.431-11.76 0-.769.065-5.119 0-5.833a1.37 1.37 0 0 1 1.253-1.475c.757-.067 1.206.543 1.5 1.233.675 1.586.553 3.894.679 6.075m-1.618-7.24-1.686-7.108c-.475-2.175 2.085-2.74 2.711-.977.416 1.212 2.7 6.665 4.087 10.419a12.369 12.369 0 0 1 .994 6.361l-.2 2.8 9.318 5.324v6.05h-11.535c1.745-2.963 2.319-5.737 3.594-10.415" transform="translate(141.419 614.405)" style="stroke-miterlimit:2.613;fill:none;stroke:#000;stroke-linecap:round;stroke-linejoin:round"/>
            </g>
            <path data-name="path1762" d="M2.589 0A61.765 61.765 0 0 1 0 8.5" transform="translate(27.204 23.936)" style="stroke-miterlimit:22.926;fill:none;stroke:#000;stroke-linecap:round;stroke-linejoin:round"/>
        </g>
    </g>
</svg>
