<svg xmlns="http://www.w3.org/2000/svg" width="33" height="29.5" viewBox="0 0 33 29.5">
    <path data-name="패스 18114" d="M16.4 17.649H10l5.182-6.608h4.392z" transform="translate(-9.5 -10.541)" style="fill:#f9d366"/>
    <path data-name="패스 18115" d="M114.8 17.649h-6.4l3.174-6.608h4.392z" transform="translate(-101.499 -10.541)" style="fill:#fff"/>
    <path data-name="패스 18118" d="M359.159 17.649h6.4l-5.1-6.608h-4.392z" transform="translate(-333.059 -10.541)" style="fill:#f9d366"/>
    <path data-name="패스 18119" d="M287.262 17.649h6.4l-3.092-6.608h-4.556z" transform="translate(-267.562 -10.541)" style="fill:#fff"/>
    <path data-name="패스 18120" d="M207.966 11.041h3.986l1.248 6.608h-6.4z" transform="translate(-193.499 -10.541)" style="fill:#f9d366"/>
    <path data-name="패스 18121" d="M10 134.03v1.763A3.2 3.2 0 0 0 13.2 139a3.2 3.2 0 0 0 3.2-3.205v-1.765z" transform="translate(-9.5 -126.809)" style="fill:#f9d366"/>
    <path data-name="패스 18122" d="M108.4 134.03v1.763a3.2 3.2 0 0 0 3.2 3.207 3.2 3.2 0 0 0 3.2-3.205v-1.765z" transform="translate(-101.499 -126.809)" style="fill:#fff"/>
    <path data-name="패스 18123" d="M206.8 134.03v1.763A3.2 3.2 0 0 0 210 139a3.2 3.2 0 0 0 3.2-3.205v-1.765z" transform="translate(-193.499 -126.809)" style="fill:#f9d366"/>
    <path data-name="패스 18124" d="M305.2 134.03v1.763a3.2 3.2 0 0 0 3.2 3.207 3.2 3.2 0 0 0 3.2-3.205v-1.765z" transform="translate(-285.5 -126.809)" style="fill:#fff"/>
    <path data-name="패스 18116" d="M114.8 17.649h-6.4l3.174-6.608h4.392z" transform="translate(-101.499 -10.541)" style="fill:none;stroke:#000;stroke-linecap:round;stroke-linejoin:round;stroke-miterlimit:10"/>
    <path data-name="패스 18125" d="M287.262 17.649h6.4l-3.092-6.608h-4.556z" transform="translate(-267.562 -10.541)" style="fill:none;stroke:#000;stroke-linecap:round;stroke-linejoin:round;stroke-miterlimit:10"/>
    <path data-name="패스 18126" d="M108.4 134.03v1.763a3.2 3.2 0 0 0 3.2 3.207h0a3.2 3.2 0 0 0 3.2-3.205v-1.765z" transform="translate(-101.499 -126.809)" style="fill:none;stroke:#000;stroke-linecap:round;stroke-linejoin:round;stroke-miterlimit:10"/>
    <path data-name="패스 18127" d="M305.2 134.03v1.763a3.2 3.2 0 0 0 3.2 3.207h0a3.2 3.2 0 0 0 3.2-3.205v-1.765z" transform="translate(-285.5 -126.809)" style="fill:none;stroke:#000;stroke-linecap:round;stroke-linejoin:round;stroke-miterlimit:10"/>
    <path data-name="패스 18128" d="M403.6 134.03v1.763a3.2 3.2 0 0 0 3.2 3.207 3.2 3.2 0 0 0 3.2-3.205v-1.765z" transform="translate(-377.5 -126.809)" style="fill:#f9d366"/>
    <path data-name="패스 18117" d="M16.4 17.649H10l5.182-6.608h4.392z" transform="translate(-9.5 -10.541)" style="fill:none;stroke:#000;stroke-linecap:round;stroke-linejoin:round;stroke-miterlimit:10"/>
    <path data-name="패스 18129" d="M359.159 17.649h6.4l-5.1-6.608h-4.392z" transform="translate(-333.059 -10.541)" style="fill:none;stroke:#000;stroke-linecap:round;stroke-linejoin:round;stroke-miterlimit:10"/>
    <path data-name="패스 18130" d="M207.966 11.041h3.986l1.248 6.608h-6.4z" transform="translate(-193.499 -10.541)" style="fill:none;stroke:#000;stroke-linecap:round;stroke-linejoin:round;stroke-miterlimit:10"/>
    <path data-name="패스 18131" d="M10 134.03v1.763A3.2 3.2 0 0 0 13.2 139h0a3.2 3.2 0 0 0 3.2-3.205v-1.765z" transform="translate(-9.5 -126.809)" style="fill:none;stroke:#000;stroke-linecap:round;stroke-linejoin:round;stroke-miterlimit:10"/>
    <path data-name="패스 18132" d="M206.8 134.03v1.763A3.2 3.2 0 0 0 210 139h0a3.2 3.2 0 0 0 3.2-3.205v-1.765z" transform="translate(-193.499 -126.809)" style="fill:none;stroke:#000;stroke-linecap:round;stroke-linejoin:round;stroke-miterlimit:10"/>
    <path data-name="패스 18133" d="M403.6 134.03v1.763a3.2 3.2 0 0 0 3.2 3.207h0a3.2 3.2 0 0 0 3.2-3.205v-1.765z" transform="translate(-377.5 -126.809)" style="fill:none;stroke:#000;stroke-linecap:round;stroke-linejoin:round;stroke-miterlimit:10"/>
    <path data-name="패스 18134" d="M84.8 167.793V163.3a3.2 3.2 0 0 1-3.2-3.205 3.2 3.2 0 1 1-6.4 0 3.2 3.2 0 1 1-6.4 0 3.2 3.2 0 1 1-6.4 0 3.2 3.2 0 0 1-.937 2.266 3.441 3.441 0 0 1-2.263.937v14.45h3.019c.619-4.846-.619-4.846 0 0H84.8v-9.956z" transform="translate(-55.5 -150.824)" style="fill:#beabff"/>
    <path data-name="패스 18135" d="M84.98 177.749 84.8 163.3a3.2 3.2 0 0 1-3.2-3.205 3.2 3.2 0 1 1-6.4 0 3.2 3.2 0 1 1-6.4 0 3.2 3.2 0 1 1-6.4 0 3.2 3.2 0 0 1-.937 2.266 3.441 3.441 0 0 1-2.263.937v14.45h25.78" transform="translate(-55.5 -150.824)" style="fill:none;stroke:#000;stroke-linecap:round;stroke-linejoin:round;stroke-miterlimit:10"/>
    <g data-name="패스 18136" style="fill:#f9d366">
        <path d="M29.308 2.51H.638V-.356h28.67V2.51z" style="stroke:none" transform="translate(1.713 26.489)"/>
        <path d="M1.138.143V2.01h27.67V.143H1.138m-1-1h29.67V3.01H.138V-.857z" style="fill:#000;stroke:none" transform="translate(1.713 26.489)"/>
    </g>
    <g style="fill:#fff">
        <path d="M3.395 13.321c-.2 0-.391-.056-.556-.16h-.037l-.147-.147-3.547-3.552a1.049 1.049 0 0 1 0-1.48l.772-.773c.198-.198.46-.307.74-.307.28 0 .542.11.74.307l2.035 2.04 4.763-4.772c.198-.198.46-.307.74-.307.28 0 .542.109.74.307l.772.773a1.049 1.049 0 0 1 0 1.48l-6.275 6.284c-.198.198-.46.307-.74.307z" style="stroke:none" transform="translate(12.192 9.948)"/>
        <path d="M3.395 12.821c.14 0 .28-.053.386-.16l6.275-6.285a.547.547 0 0 0 0-.773l-.772-.773a.545.545 0 0 0-.772 0L3.395 9.956l-2.39-2.393a.545.545 0 0 0-.771 0l-.772.773a.547.547 0 0 0 0 .773L3.01 12.66c.107.107.246.16.386.16m0 1c-.242 0-.476-.055-.687-.16h-.113l-.294-.293-3.546-3.553a1.55 1.55 0 0 1 0-2.186l.771-.773c.292-.292.68-.454 1.094-.454.413 0 .801.162 1.093.454L3.395 8.54l4.41-4.417c.292-.292.68-.453 1.093-.453.413 0 .802.16 1.094.453l.772.773a1.55 1.55 0 0 1 0 2.187l-6.275 6.285c-.292.292-.68.453-1.094.453z" style="fill:#000;stroke:none" transform="translate(12.192 9.948)"/>
    </g>
</svg>
