<svg xmlns="http://www.w3.org/2000/svg" width="31" height="28.083" viewBox="0 0 31 28.083">
    <path data-name="합치기 57" d="M27.311 9.052H0V4.58a2.041 2.041 0 0 1 1.154-1.908 34.815 34.815 0 0 1 26.754 0 2.025 2.025 0 0 1 1.159 1.908v4.472z" transform="translate(.971 .582)" style="fill:#beabff"/>
    <path data-name="합치기 61" d="M20.153 5.066H1.9A1.963 1.963 0 0 1 0 3.042V0h23.968v3.042a1.969 1.969 0 0 1-1.909 2.025z" transform="translate(3.515 22.508)" style="fill:#f9d366"/>
    <path data-name="합치기 58" d="M1.909 19.4A1.871 1.871 0 0 1 0 17.569v-2.562a3.553 3.553 0 0 1 .64-2.033l2.535-3.661a3.6 3.6 0 0 0 .641-2.039V4.592a1.869 1.869 0 0 1 1.9-1.833V.92a.957.957 0 0 1 1.913 0v1.839h8.707V.92a.954.954 0 0 1 1.907 0v1.839a1.872 1.872 0 0 1 1.909 1.833v2.753a3.639 3.639 0 0 0 .64 1.968l2.535 3.661a3.539 3.539 0 0 1 .64 2.033v2.562a1.872 1.872 0 0 1-1.908 1.831z" transform="translate(3.515 3.632)" style="fill:#beabff"/>
    <path d="M-479.222-209.033h6.557v-4.995a2.023 2.023 0 0 0-1.194-1.905 37.024 37.024 0 0 0-27.613 0 2.023 2.023 0 0 0-1.194 1.905v4.995h6.694" transform="translate(503.165 219.192)" style="fill:none;stroke:#000;stroke-linecap:round;stroke-linejoin:round;stroke-miterlimit:10"/>
    <path data-name="합치기 60" d="M0 6.658a6.651 6.651 0 1 1 6.655 6.652A6.652 6.652 0 0 1 0 6.658z" transform="translate(8.85 8.409)" style="fill:#fff"/>
    <path d="M-249.359-124.679a6.654 6.654 0 0 1-6.654 6.654 6.654 6.654 0 0 1-6.654-6.654 6.654 6.654 0 0 1 6.654-6.654 6.654 6.654 0 0 1 6.654 6.654z" transform="translate(271.512 139.743)" style="fill:none;stroke:#000;stroke-linecap:round;stroke-linejoin:round;stroke-miterlimit:10"/>
    <path data-name="합치기 59" d="M0 2.6a2.6 2.6 0 1 1 2.6 2.6A2.6 2.6 0 0 1 0 2.6z" transform="translate(12.9 12.477)" style="fill:#f9d366"/>
    <path d="M-97.465-48.733a2.6 2.6 0 0 1-2.6 2.6 2.6 2.6 0 0 1-2.6-2.6 2.6 2.6 0 0 1 2.6-2.6 2.6 2.6 0 0 1 2.6 2.6z" transform="translate(115.566 63.811)" style="fill:none;stroke:#000;stroke-linecap:round;stroke-linejoin:round;stroke-miterlimit:10"/>
    <path d="m-465.9-268.5-2.534-3.954a4.085 4.085 0 0 1-.641-2.2v-2.9a1.947 1.947 0 0 0-1.908-1.984v-1.985a.974.974 0 0 0-.954-.992.974.974 0 0 0-.954.992v1.985h-8.709v-1.985a.974.974 0 0 0-.954-.992.974.974 0 0 0-.954.992v1.985a1.947 1.947 0 0 0-1.908 1.984v2.9a4.084 4.084 0 0 1-.641 2.2l-2.534 3.954a4.084 4.084 0 0 0-.641 2.2v5.744a1.947 1.947 0 0 0 1.908 1.984h20.156a1.947 1.947 0 0 0 1.908-1.984v-5.744a4.084 4.084 0 0 0-.64-2.2z" transform="translate(492.743 286.147)" style="fill:none;stroke:#000;stroke-linecap:round;stroke-linejoin:round;stroke-miterlimit:10"/>
    <path d="M0 0a1.97 1.97 0 0 0 1.908 2.026h20.156A1.97 1.97 0 0 0 23.972 0" transform="translate(3.514 21.1)" style="fill:none;stroke:#000;stroke-linecap:round;stroke-linejoin:round;stroke-miterlimit:10"/>
</svg>
