<svg xmlns="http://www.w3.org/2000/svg" width="29" height="34" viewBox="0 0 29 34">
    <g data-name="그룹 21949">
        <g data-name="사각형 13487" transform="translate(5.381 3.724)" style="stroke:#000;fill:#beabff">
            <rect width="23.619" height="30.276" rx="1" style="stroke:none"/>
            <rect x=".5" y=".5" width="22.619" height="29.276" rx=".5" style="fill:none"/>
        </g>
        <g data-name="사각형 13486" style="fill:#f9d366;stroke:#000">
            <rect width="23.619" height="30.276" rx="1" style="stroke:none"/>
            <rect x=".5" y=".5" width="22.619" height="29.276" rx=".5" style="fill:none"/>
        </g>
        <path d="M-177.155-99.2v1.292m-3.055 17.918c4.352 0 3.055-2.327 5.261-2.327a.814.814 0 0 1 .849.773.814.814 0 0 1-.849.773c-1.57 0-2.842-3.093-4.412-3.093a.814.814 0 0 0-.849.773.814.814 0 0 0 .849.773c1.035 0 3.407-3.141 4.412-3.093m0 0a.814.814 0 0 1 .849.773.814.814 0 0 1-.849.773c-1.57 0-2.842-3.093-4.412-3.093a.814.814 0 0 0-.849.773.814.814 0 0 0 .849.773c1.57 0 2.842-3.093 4.412-3.093a.814.814 0 0 1 .849.773.814.814 0 0 1-.849.773c-1.57 0-2.842-3.093-4.412-3.093a.814.814 0 0 0-.849.773.814.814 0 0 0 .849.773c1.57 0 2.842-3.093 4.412-3.093a.814.814 0 0 1 .849.773.814.814 0 0 1-.849.773c-1.57 0-3.663-2.339-3.663-2.339a3.172 3.172 0 0 0 1.456-2.641m4.026.192-1.111 1.433 1.72 1.433c0 8.275.36 9.531 1.52 10.542m-12.31 0c1.16-1.01 1.52-2.267 1.52-10.542l1.72-1.433-1.111-1.433m7.734-4.563a2.96 2.96 0 0 0 1.493 1.359m-10.4 0a2.96 2.96 0 0 0 1.493-1.359m5.914-1.472v4.376a2.363 2.363 0 0 0 1.673-.561m-7.934.3s1.849.259 1.849-1.03v-3.093m.084 3.093h4.243m-4.243-1.547h4.243m3.837 4.759a33.854 33.854 0 0 0-11.917 0m2.251-6.635a21.066 21.066 0 0 0 7.416 0" transform="translate(189.322 105.453)" style="stroke-linecap:round;stroke-linejoin:round;stroke-miterlimit:10;fill:none;stroke:#000"/>
    </g>
</svg>
