<svg xmlns="http://www.w3.org/2000/svg" width="31.013" height="31.018" viewBox="0 0 31.013 31.018">
    <path data-name="패스 29179" d="m34.137 183.755 1 3.771a1.424 1.424 0 0 1 1.971.3 1.449 1.449 0 0 1-.341 2.027l-3.962 2.847a1.994 1.994 0 0 1 2.783.453.854.854 0 0 1-.2 1.192l-4.988 3.572a3.5 3.5 0 0 1-3.491.339l-2.068-1.4-11.154 3.168v-3.652l6.88-5.153.064-1.952a3.5 3.5 0 0 1 1.431-2.709l6.554-4.877z" transform="translate(-13.189 -170.135)" style="fill:#ffd8ca"/>
    <path data-name="패스 29180" d="M245.524 35.307c-.35 3.167-2.991 4.682-6.135 4.682h-6.8c-1.952 0-3.513-.765-3.44-2.742L229 34.1a14.381 14.381 0 0 1 1.938-7.928l1.87-3.206a1.544 1.544 0 0 0-.841-1.483c-.1-.053-.186-.1-.261-.137-.83-.4-1.108-1.209-1.4-2.187a4.383 4.383 0 0 1 .008-1.98.651.651 0 0 1 .64-.54h.181c.411 0 .3-.35.583-.628a1.539 1.539 0 0 0 .356-.541 5.166 5.166 0 0 1 4.091-3.275c-.049-.193-.48-1.414-.48-1.414a.561.561 0 0 1 .629-.771l2.054.452a2.487 2.487 0 0 1 2.039 1.889l.218.565c3.989 3.422 1.842 9.036 1.842 9.036l.34 1.611a19.059 19.059 0 0 0 1.634 4.6 12.47 12.47 0 0 1 1.083 7.144z" transform="translate(-215.164 -9.493)" style="fill:#beabff"/>
    <path data-name="패스 29182" d="M40.555 236.98a1.424 1.424 0 0 0-1.978-.253l1.179-.89a1.449 1.449 0 0 0 .291-2.034 1.424 1.424 0 0 0-1.978-.253l.264-.2a1.422 1.422 0 1 0-1.7-2.274L35.41 232a1.424 1.424 0 0 0 .3-1.971 1.449 1.449 0 0 0-2.036-.278l-3.893 2.938a1.994 1.994 0 0 0 .4-2.792.854.854 0 0 0-1.2-.163l-4.9 3.7a3.5 3.5 0 0 0-1.362 3.232l.722 2.391-9.751 5.763h11.6l2.263-.006 1.883.52a3.5 3.5 0 0 0 3.012-.561l7.818-5.751a1.449 1.449 0 0 0 .289-2.042z" transform="translate(-13.189 -214.95)" style="fill:#ffe5d8"/>
    <path data-name="패스 29183" d="M26.275 247.046a17.077 17.077 0 0 1 2.34-8.654l-4.534 3.423a3.5 3.5 0 0 0-1.362 3.232l.722 2.391-9.752 5.762h11.6l2.152.069a17.114 17.114 0 0 1-1.166-6.223z" transform="translate(-13.189 -223.339)" style="fill:#ffd8ca"/>
    <path data-name="패스 29184" d="M13.689 197.662v-3.626l6.88-5.153.064-1.952a3.5 3.5 0 0 1 1.431-2.709l6.558-4.792" transform="translate(-13.189 -167.8)" style="fill:none;stroke:#000;stroke-linecap:round;stroke-linejoin:round;stroke-miterlimit:10"/>
    <g data-name="그룹 66948">
        <path data-name="패스 29185" d="m251.538 40 7.08-.006c5.573 0 6.13-4.634 6.137-4.683a13.27 13.27 0 0 0-1.093-7.145 19.846 19.846 0 0 1-1.638-4.661l-.327-1.548s2.147-5.614-1.842-9.036l-.219-.565a2.486 2.486 0 0 0-2.038-1.889l-2.054-.452a.561.561 0 0 0-.629.771l.463 1.414a5.142 5.142 0 0 0-4.075 3.275c-.232.6-.308 1.172-.94 1.169h-.181a.65.65 0 0 0-.64.539c-.221 1.579-.024 3.478 1.4 4.168.075.036.164.084.261.137a1.543 1.543 0 0 1 .841 1.483l-.622 1.067" transform="translate(-234.381 -9.494)" style="fill:none;stroke:#000;stroke-linecap:round;stroke-linejoin:round;stroke-miterlimit:10"/>
    </g>
    <path data-name="선 49" transform="translate(19.727 7.544)" style="fill:none;stroke:#000;stroke-linecap:round;stroke-linejoin:round;stroke-miterlimit:10" d="M.066 0 0 1.143"/>
    <path data-name="선 50" transform="translate(20.999 2.673)" style="fill:none;stroke:#000;stroke-linecap:round;stroke-linejoin:round;stroke-miterlimit:10" d="m0 0 1.22 3.262"/>
    <g data-name="그룹 66951">
        <path data-name="패스 29186" d="M40.555 236.98a1.424 1.424 0 0 0-1.978-.253l1.179-.89a1.449 1.449 0 0 0 .291-2.034 1.424 1.424 0 0 0-1.978-.253l.264-.2a1.422 1.422 0 1 0-1.7-2.274L35.41 232a1.424 1.424 0 0 0 .3-1.971 1.449 1.449 0 0 0-2.036-.278l-3.893 2.938a1.994 1.994 0 0 0 .4-2.792.854.854 0 0 0-1.2-.163l-4.9 3.7a3.5 3.5 0 0 0-1.362 3.232l.722 2.391-9.751 5.763h11.6l2.263-.006 1.883.52a3.5 3.5 0 0 0 3.012-.561l7.818-5.751a1.449 1.449 0 0 0 .289-2.042z" transform="translate(-13.189 -214.95)" style="fill:none;stroke:#000;stroke-linecap:round;stroke-linejoin:round;stroke-miterlimit:10"/>
    </g>
    <g data-name="그룹 66952">
        <path data-name="패스 29187" d="m237.3 264.474-3.913 2.952" transform="translate(-219.292 -247.807)" style="fill:none;stroke:#000;stroke-linecap:round;stroke-linejoin:round;stroke-miterlimit:10"/>
        <path data-name="선 51" transform="translate(17.972 16.486)" style="fill:none;stroke:#000;stroke-linecap:round;stroke-linejoin:round;stroke-miterlimit:10" d="M4.99 0 0 3.766"/>
        <path data-name="선 52" transform="translate(19.26 18.596)" style="fill:none;stroke:#000;stroke-linecap:round;stroke-linejoin:round;stroke-miterlimit:10" d="M5.624 0 0 4.245"/>
        <path data-name="선 53" transform="translate(21.396 20.892)" style="fill:none;stroke:#000;stroke-linecap:round;stroke-linejoin:round;stroke-miterlimit:10" d="M5.164 0 0 3.897"/>
    </g>
</svg>
