<svg xmlns="http://www.w3.org/2000/svg" width="30" height="32.5" viewBox="0 0 30 32.5">
    <g data-name="그룹 69109">
        <path d="M-117.518 0h-4.8a1.291 1.291 0 0 0-1.413 1.116v8.435a1.291 1.291 0 0 0 1.413 1.116h4.8a1.291 1.291 0 0 0 1.413-1.116V1.116A1.291 1.291 0 0 0-117.518 0" transform="translate(124.236 21.333)" style="stroke:#000;fill:#fadc60" data-name="그룹 69108"/>
        <path d="M-117.517 0h-4.805a1.309 1.309 0 0 0-1.413 1.17v12.9a1.309 1.309 0 0 0 1.413 1.17h4.805a1.309 1.309 0 0 0 1.413-1.17V1.17A1.309 1.309 0 0 0-117.517 0" transform="translate(134.92 16.761)" style="fill:#7acfa5;stroke:#000"/>
        <path d="M-117.517 0h-4.805a1.32 1.32 0 0 0-1.413 1.2v17.409a1.32 1.32 0 0 0 1.413 1.2h4.805a1.32 1.32 0 0 0 1.413-1.2V1.2a1.32 1.32 0 0 0-1.413-1.2" transform="translate(145.604 12.19)" style="fill:#f9d366;stroke:#000"/>
    </g>
    <path data-name="패스 30736" d="M.654 12.074a.9.9 0 0 1 .857-.934 36.534 36.534 0 0 0 7.428-1.252 51.9 51.9 0 0 0 9.049-3.4 62.429 62.429 0 0 0 7.467-4.295l-2.111-.883a.192.192 0 0 1 .041-.369l5.76-.934a.189.189 0 0 1 .215.25l-1.855 5.529a.2.2 0 0 1-.375-.021l-.518-2.2a63.875 63.875 0 0 1-7.877 4.539 53.052 53.052 0 0 1-9.385 3.521 37.116 37.116 0 0 1-7.77 1.295.237.237 0 0 1-.039 0 .891.891 0 0 1-.887-.846z"/>
</svg>
