<svg xmlns="http://www.w3.org/2000/svg" width="14" height="14" viewBox="0 0 14 14">
    <g data-name="그룹 6807">
        <circle data-name="타원 42" cx="7" cy="7" r="7" style="fill:#feb02a"/>
    </g>
    <path data-name="패스 1832" d="M8.067-4.542h-1.3q-.117.459-.324 1.377t-.311 1.376H4.611q-.027-.18-.2-1.2t-.249-1.553h-.45q-.081.45-.274 1.377t-.275 1.376H1.651q-.09-.459-.292-1.377t-.293-1.376H-.246v-1.08H.832Q.76-5.991.6-6.738T.355-7.854H1.75q.072.414.2 1.188t.171 1.044h.774q.072-.369.207-1.116t.207-1.116h1.4q.216 1.242.369 2.232h.738q.072-.369.193-1.116T6.2-7.854h1.327q-.441 1.89-.513 2.232h1.053zM2.47-3.121q.072-.711.2-1.422h-.36a12.9 12.9 0 0 1 .16 1.422zm2.96-.009q.045-.612.18-1.413h-.342A12.933 12.933 0 0 1 5.43-3.13zM3.892-5.622h.1l-.045-.585q0 .027-.018.243t-.037.342z" transform="translate(3.119 11.977)" style="fill:#fff"/>
</svg>
