<svg xmlns="http://www.w3.org/2000/svg" width="18" height="18" viewBox="0 0 18 18">
    <path data-name="패스 4757" d="M9 0a9 9 0 1 0 9 9 9.01 9.01 0 0 0-9-9z" transform="rotate(180 9 9)" style="fill:#00af79"/>
    <path d="M10.312 8.992c-.8-2.606-4.878-2-4.878-2S5.568 12.2 9.377 11.4a3.189 3.189 0 0 0-1.27-2.472c1.871 0 2 2.272 2 2.272v4.31h1.337v-4.045s0-2.606 2-3.274a8.221 8.221 0 0 0-1.337 3.341c4.678.468 4.678-5.948 4.678-5.948s-5.948-.668-6.482 3.408z" transform="translate(-2.113 -1.043)" style="fill:#fff"/>
</svg>
