<svg xmlns="http://www.w3.org/2000/svg" width="30" height="24" viewBox="0 0 30 24">
    <path d="m169.091 713.556-4.072 4.018-11.319-11.167a7.617 7.617 0 0 1 .323-10.555 7.911 7.911 0 0 1 10.743-.292l.258.229.258-.229a7.905 7.905 0 0 1 10.739.292 7.641 7.641 0 0 1 2.151 6.9l-.068.345.343.1a4.542 4.542 0 0 1 1.957 1.127 4.354 4.354 0 0 1 0 6.256l-7.176 7.018zm.161-8.6a2.6 2.6 0 0 0-1.823.738 2.442 2.442 0 0 0 0 3.516l5.8 5.668 5.8-5.668a2.446 2.446 0 0 0 0-3.516 2.624 2.624 0 0 0-3.649 0l-2.15 2.1-2.147-2.1a2.6 2.6 0 0 0-1.83-.738zm-9.7-9.429a5.875 5.875 0 0 0-4.146 1.692 5.721 5.721 0 0 0-.28 7.864l9.894 9.759 2.68-2.642-1.652-1.616a4.354 4.354 0 0 1 0-6.256 4.605 4.605 0 0 1 6.408 0l.77.749.769-.749a4.6 4.6 0 0 1 1.846-1.1l.2-.061.06-.193a5.705 5.705 0 0 0-1.466-5.76 5.919 5.919 0 0 0-8.042-.221l-1.566 1.385-1.573-1.378a5.891 5.891 0 0 0-3.903-1.473z" transform="translate(-151.728 -693.598)" style="fill:#222"/>
</svg>
