<svg xmlns="http://www.w3.org/2000/svg" width="24" height="24" viewBox="0 0 24 24">
    <path data-name="패스 30773 - 윤곽선" d="M25.492 23.582h7.33a1.924 1.924 0 0 1 1.922 1.918v7.328a1.924 1.924 0 0 1-1.922 1.922h-7.33a1.924 1.924 0 0 1-1.922-1.922V25.5a1.924 1.924 0 0 1 1.922-1.918zm7.241 2.011h-7.152v7.15h7.152zm5.587-2.011h7.328A1.924 1.924 0 0 1 47.57 25.5v7.328a1.924 1.924 0 0 1-1.922 1.922H38.32a1.924 1.924 0 0 1-1.92-1.918V25.5a1.924 1.924 0 0 1 1.92-1.918zm7.239 2.011h-7.15v7.15h7.15zM25.492 36.408h7.33a1.924 1.924 0 0 1 1.922 1.922v7.33a1.924 1.924 0 0 1-1.922 1.922h-7.33a1.924 1.924 0 0 1-1.922-1.922v-7.33a1.924 1.924 0 0 1 1.922-1.922zm7.241 2.011h-7.152v7.152h7.152zm5.587-2.011h7.328a1.924 1.924 0 0 1 1.922 1.922v7.33a1.924 1.924 0 0 1-1.922 1.922H38.32a1.924 1.924 0 0 1-1.92-1.922v-7.33a1.924 1.924 0 0 1 1.92-1.922zm7.239 2.011h-7.15v7.152h7.15z" transform="translate(-23.57 -23.582)" style="fill:#222"/>
</svg>
