<svg xmlns="http://www.w3.org/2000/svg" width="24" height="24" viewBox="0 0 24 24">
    <g data-name="그룹 69223">
        <path data-name="패스 30769" d="M34.263 34.261a1.956 1.956 0 0 0 1.966-1.946V24.7A3.873 3.873 0 0 0 35 21.871l-7.25-6.779a1.98 1.98 0 0 0-2.7 0l-7.25 6.78a3.873 3.873 0 0 0-1.228 2.828v7.614a1.956 1.956 0 0 0 1.966 1.946h15.725m0 2.15H18.537a4.121 4.121 0 0 1-4.137-4.1V24.7a6.037 6.037 0 0 1 1.912-4.392l7.246-6.779a4.168 4.168 0 0 1 5.685 0l7.246 6.779A6.037 6.037 0 0 1 38.4 24.7v7.614a4.121 4.121 0 0 1-4.137 4.097z" transform="translate(-14.4 -12.411)" style="fill:#222"/>
    </g>
</svg>
