<svg xmlns="http://www.w3.org/2000/svg" width="24" height="24" viewBox="0 0 24 24">
    <defs>
        <clipPath id="8zmsxjnmha">
            <path data-name="사각형 33113" style="fill:#444" d="M0 0h24v24H0z"/>
        </clipPath>
    </defs>
    <g data-name="그룹 69095" style="clip-path:url(#8zmsxjnmha)">
        <path data-name="패스 30552" d="M22.183 24a1.81 1.81 0 0 1-1.321-.576l-3.45-3.49-.247-.024A10.827 10.827 0 0 1 11 21.821 10.917 10.917 0 0 1 1.924 4.73a10.941 10.941 0 0 1 18.055 12.363l.02.242 3.45 3.519v.005A1.833 1.833 0 0 1 22.183 24M10.946 3.374a7.617 7.617 0 0 0-7.623 7.6 7.458 7.458 0 0 0 2.236 5.313 7.685 7.685 0 0 0 10.777 0 7.281 7.281 0 0 0 2.223-5.342 7.6 7.6 0 0 0-7.612-7.575" style="fill:#444"/>
    </g>
</svg>
