<svg xmlns="http://www.w3.org/2000/svg" width="145.999" height="36" viewBox="0 0 145.999 36">
    <path data-name="패스 30890" d="M126.115 58.025v-.579c-1.258-.084-1.539-.187-1.539-1.327v-8.093c0-1.14.28-1.259 1.539-1.343v-.561h-5.49v.561c1.258.084 1.539.2 1.539 1.343v3.3h-5.228v-3.3c0-1.14.28-1.259 1.539-1.343v-.561h-5.493v.561c1.258.084 1.539.2 1.539 1.343v8.095c0 1.14-.28 1.242-1.539 1.327v.578h5.49v-.578c-1.259-.085-1.539-.188-1.539-1.327V52.3h5.228v3.826c0 1.14-.28 1.241-1.539 1.327v.579zm7.4-12.166a5.768 5.768 0 0 0-6.085 6.207 6.1 6.1 0 1 0 12.17 0 5.76 5.76 0 0 0-6.085-6.2zm0 11.5c-2.623 0-3.465-2.228-3.465-5.289s.839-5.29 3.465-5.29 3.465 2.211 3.465 5.29-.858 5.3-3.465 5.3zm11.6.663v-.582c-1.258-.084-1.539-.187-1.539-1.327v-8.077l6.627 9.983h1.417v-9.993c0-1.14.262-1.259 1.521-1.343v-.561h-4.161v.561c1.259.084 1.521.2 1.521 1.343v6.083l-5.32-7.993H140.9v.561c1.258.084 1.556.2 1.556 1.343v8.1c0 1.14-.3 1.241-1.556 1.327v.579zm19.36 0h.769v-3.6c0-1.14.3-1.259 1.417-1.343v-.561h-5.35v.561c1.258.085 1.521.2 1.521 1.343v1.974a3.3 3.3 0 0 1-2.466.969c-2.43 0-3.428-2.228-3.428-5.29s.979-5.289 3.6-5.289a4.659 4.659 0 0 1 4.109 2.874l.559-.17-.961-3.368h-.682l-.247.544a5.184 5.184 0 0 0-3.025-.8 5.814 5.814 0 0 0-5.98 6.207 5.8 5.8 0 0 0 5.98 6.207 5.055 5.055 0 0 0 3.465-1.208zm17-11.9h-.682l-.248.544a5.061 5.061 0 0 0-2.955-.8 5.813 5.813 0 0 0-5.963 6.207 5.806 5.806 0 0 0 5.383 6.2q.29.02.58.011a4.992 4.992 0 0 0 5.124-3.453l-.961-.323a4.085 4.085 0 0 1-3.952 2.855c-2.57 0-3.55-2.228-3.55-5.29s.979-5.29 3.55-5.29a4.749 4.749 0 0 1 4.075 2.874l.559-.17zm8.764 0h-1.575l-4 10.2a1.537 1.537 0 0 1-1.469 1.117v.579h3.83v-.579c-1.189-.084-1.609-.34-1.329-1.038l.735-1.854h4.564l.735 1.854c.3.745.018.952-1.154 1.038v.579h5.053v-.579c-.735-.084-1.067-.372-1.381-1.173zm-1.557 2.653 1.918 4.805h-3.812zm11.444-1.191a.5.5 0 0 1 .48-.511h1.391a5.114 5.114 0 0 1 4.616 2.211l.5-.238-1.084-2.925h-9.844v.561c1.259.084 1.539.2 1.539 1.343v8.095c0 1.14-.28 1.242-1.539 1.327v.579h5.515v-.586c-1.294-.084-1.574-.187-1.574-1.327V52.3h2.447c1.277 0 1.5.579 1.556 1.548h.647V49.78h-.653c-.052.969-.28 1.548-1.557 1.548h-2.447zm12.19 9.473a.481.481 0 0 1-.523-.434.465.465 0 0 1 0-.076V52.3h2.447c1.277 0 1.5.579 1.556 1.548h.647V49.78h-.647c-.052.969-.28 1.548-1.556 1.548h-2.447v-3.749a.5.5 0 0 1 .48-.511h1.386a5.114 5.114 0 0 1 4.617 2.211l.5-.239-1.084-2.925h-9.843v.561c1.259.084 1.539.2 1.539 1.343v8.095c0 1.14-.28 1.242-1.539 1.327v.579h9.851l1.7-3.282-.5-.289a6.391 6.391 0 0 1-5.228 2.607z" transform="translate(-73.396 -29.731)" style="fill:#6335b4"/>
    <path data-name="패스 30891" d="M114.478 1a1.643 1.643 0 0 0-.831-.824 1.679 1.679 0 0 0-.347-.129 1.407 1.407 0 0 0-.641-.019 1.267 1.267 0 0 0-.752.488.842.842 0 0 0-.161.372 1.677 1.677 0 0 0 0 .291 2.3 2.3 0 0 1-.115.818c-.013.037-.031.072-.046.108a1 1 0 0 1-.042.1v.01l.147-.1.353-.249c.382-.273.706-.51.937-.679-.217.248-.481.536-.8.84-.124.124-.265.248-.41.379.032 0 .062-.013.1-.016h.109a.794.794 0 0 1 .091 0 1.732 1.732 0 0 1 .437.059l.052.016a2.22 2.22 0 0 1 .371.138 2.728 2.728 0 0 1 .339.2l.1.068a2.093 2.093 0 0 0 .335-.214c.438-.387 1-.993.788-1.631" transform="translate(-72.463)" style="fill:#6335b4"/>
    <path data-name="패스 30892" d="M97.406 15.184a.6.6 0 0 0-.063-.06 2.7 2.7 0 0 0-.5-.3 1.766 1.766 0 0 0-.429-.149.931.931 0 0 0-.116-.022l-.09-.009h-.061c-.4.133-.82.249-1.261.355l.052.032.021.014c.023.014.047.028.069.045a1.052 1.052 0 0 1 .094.073 1.941 1.941 0 0 1 .345.36 2.442 2.442 0 0 1 .26.429c.042.087.075.172.108.249a.329.329 0 0 0 .2.2 1.329 1.329 0 0 0 1.361-.638.543.543 0 0 0 .11-.364.4.4 0 0 0-.109-.213" transform="translate(-61.645 -9.494)" style="fill:#6335b4"/>
    <path data-name="패스 30893" d="M105.691 5.355c.155-.1.31-.195.464-.3l.093-.055c.443-.3.873-.592 1.271-.869 0-.013.012-.024.018-.037s.013-.043.021-.063a.868.868 0 0 0 .032-.1v-.019a1.542 1.542 0 0 0 .052-.4c.006-.273.028-.571-.259-.716a.761.761 0 0 0-.561-.02 1.159 1.159 0 0 0-.619.47c-.268.412-.11.848-.192 1.3v.031c-.014.061-.027.124-.043.181a.747.747 0 0 1-.022.076 1.371 1.371 0 0 1-.091.238c-.009.021-.021.037-.031.057a1.248 1.248 0 0 1-.061.113l-.021.039a2.05 2.05 0 0 1-.047.075" transform="translate(-68.66 -1.772)" style="fill:#6335b4"/>
    <path data-name="패스 30894" d="M108.756 7.44a1.893 1.893 0 0 0-.327-.208 1.54 1.54 0 0 0-.371-.134.909.909 0 0 0-.182-.03h-.193a13.625 13.625 0 0 1-2.274 1.6c.031 0 .06-.011.093-.014h.069a1.209 1.209 0 0 1 .124 0h.039a1.981 1.981 0 0 1 .495.073c.072.019.141.043.209.068.381.141.742.348 1.133.46a1.792 1.792 0 0 0 .99.028 1.075 1.075 0 0 0 .721-.638.857.857 0 0 0-.139-.8 1.824 1.824 0 0 0-.38-.387" transform="translate(-68.477 -4.583)" style="fill:#6335b4"/>
    <path data-name="패스 30895" d="m100.4 8.444-.082.091-.021.022a1.47 1.47 0 0 1-.111.108 12.321 12.321 0 0 0 1.769-.869l.023-.04a.793.793 0 0 0 .033-.065.991.991 0 0 0 .04-.1l.009-.021a2.421 2.421 0 0 0 .117-.941.336.336 0 0 0-.069-.221.3.3 0 0 0-.247-.069.873.873 0 0 0-.668.4 4.335 4.335 0 0 0-.315.869 2.961 2.961 0 0 1-.24.5 1.948 1.948 0 0 1-.156.228 1.145 1.145 0 0 1-.089.113" transform="translate(-65.082 -4.111)" style="fill:#6335b4"/>
    <path data-name="패스 30896" d="M82.527 17.846q-.014-.1-.04-.213a.287.287 0 0 0-.015-.07 2.108 2.108 0 0 0-.149-.407 1.7 1.7 0 0 0-.238-.372 1.051 1.051 0 0 0-.141-.149.94.94 0 0 0-.142-.124h-.012a.974.974 0 0 0-.083-.057 1.808 1.808 0 0 0-.094-.057c-.124 0-.247.011-.371.014-.008 0-.855-.044-2.091-.173l-.124-.012-.124-.014.069.022a1.271 1.271 0 0 1 .156.063c.022.01.044.016.067.027h.011a.9.9 0 0 1 .094.047c.046.025.09.052.135.078a2.5 2.5 0 0 1 .407.319 2.875 2.875 0 0 1 .248.267 3.664 3.664 0 0 1 .447.832 1.054 1.054 0 0 0 .823.64 1.441 1.441 0 0 0 1.187-.475.479.479 0 0 0-.009-.108.7.7 0 0 1-.012-.084" transform="translate(-51.258 -10.511)" style="fill:#6335b4"/>
    <path data-name="패스 30897" d="m74.072 16.2-.087-.021a9.706 9.706 0 0 0-1.568.173l-.073.014c-.1.02-.2.042-.3.066a1.356 1.356 0 0 1 .15.025 1.274 1.274 0 0 1 .135.037 1.414 1.414 0 0 1 .767.561 3.326 3.326 0 0 0 .72.869 1.61 1.61 0 0 0 .7.331 1.174 1.174 0 0 0 .762-.108.453.453 0 0 0 .227-.232.522.522 0 0 0-.046-.362 2.337 2.337 0 0 0-1.007-1.2 1.041 1.041 0 0 0-.094-.05 1.586 1.586 0 0 0-.1-.043l-.067-.026a.849.849 0 0 0-.124-.037" transform="translate(-46.801 -10.49)" style="fill:#6335b4"/>
    <path data-name="패스 30898" d="M32.576 45.837a2.928 2.928 0 0 0-3.341-2.9 2.508 2.508 0 0 0-.318.047 2.625 2.625 0 0 0-.6.171c-.145.065-.331.17-.345.344a.373.373 0 0 0 .093.248c.058.075.141.133.205.2a3.083 3.083 0 0 1 .216.271v.006l.248.334a.854.854 0 0 1 .09.14.506.506 0 0 1 .025.328.283.283 0 0 1-.055.124.14.14 0 0 1-.124.055c-.066-.008-.109-.067-.156-.113a.537.537 0 0 0-.52-.105.351.351 0 0 0-.229.173.816.816 0 0 0 .04.621s.416 1.38 2.483 1.08a.378.378 0 0 1 .371.224.4.4 0 0 0 .4.173s.35-.044.313-.323c0 0-.114-.169 1.071-.345 0 0 .279-.04.124-.754m-1.39.8a.233.233 0 0 1-.294.084.4.4 0 0 1-.2-.248 2.088 2.088 0 0 1-.06-.328.647.647 0 0 0-.115-.31c-.082-.1-.208-.16-.292-.263a.725.725 0 0 1-.124-.283 1.212 1.212 0 0 1-.019-.607.663.663 0 0 1 .593-.46.46.46 0 0 1 .38.241.725.725 0 0 1 .075.372 3.739 3.739 0 0 1-.041.38 3.3 3.3 0 0 0 0 .86 1.264 1.264 0 0 0 .042.207c.02.059.047.117.062.178a.412.412 0 0 1 .011.068.231.231 0 0 1-.021.116" transform="translate(-18.008 -27.823)" style="fill:#6335b4"/>
    <path data-name="패스 30900" d="M77.042 11.143a1.638 1.638 0 0 1-.052.065 10.015 10.015 0 0 1 1.87.078c.007 0 .124.019.32.039.015-.011.03-.019.046-.032l.028-.021a.762.762 0 0 0 .068-.057l.04-.037a.985.985 0 0 0 .135-.144 1.617 1.617 0 0 0 .227-.354 2.009 2.009 0 0 0 .141-.391 2.494 2.494 0 0 0 .063-.355v-.067a.8.8 0 0 0-.406-.627 1.464 1.464 0 0 0-.817-.145 1.538 1.538 0 0 0-.99.545 1.5 1.5 0 0 0-.115.16 1.6 1.6 0 0 0-.079.154l-.046.147c-.025.1-.051.2-.078.284a3.225 3.225 0 0 1-.114.314 2.168 2.168 0 0 1-.208.385l-.045.061" transform="translate(-50.014 -5.892)" style="fill:#6335b4"/>
    <path data-name="패스 30901" d="m70.788 11.967.137-.01c.015-.022.03-.044.042-.066l.033-.06c.011-.02.015-.036.022-.05a1.8 1.8 0 0 0 .178-.611c.008-.067.011-.124.013-.191a2.42 2.42 0 0 0-.047-.539l-.008-.036a1.822 1.822 0 0 0-1.752.117 8.689 8.689 0 0 0-.9.417 1.074 1.074 0 0 0-.447.844 1.785 1.785 0 0 1-.157.787l-.035.076-.054.1a8.539 8.539 0 0 1 2.778-.758l.194-.017" transform="translate(-44.057 -6.636)" style="fill:#6335b4"/>
    <path data-name="패스 30902" d="M83.9 11.337a1 1 0 0 1-.124.083c-.019.012-.037.028-.057.04l-.027.017a.964.964 0 0 1-.093.052 12.561 12.561 0 0 0 1.992-.01l.036-.014a1.73 1.73 0 0 0 .105-.053l.078-.042a1.693 1.693 0 0 0 .203-.13 1.323 1.323 0 0 0 .206-.169 1.5 1.5 0 0 0 .2-.2 3.21 3.21 0 0 0 .454-.76.382.382 0 0 0 .063-.242.342.342 0 0 0-.133-.184 1.742 1.742 0 0 0-1.774-.164.619.619 0 0 0-.313.266.884.884 0 0 0-.058.225 2.253 2.253 0 0 1-.432.953 1.83 1.83 0 0 1-.327.336" transform="translate(-54.307 -6.088)" style="fill:#6335b4"/>
    <path data-name="패스 30903" d="M102.507 12.181c-.108-.065-.247-.136-.276-.152a1.466 1.466 0 0 0-.418-.149 1.077 1.077 0 0 0-.209-.033h-.017c-.037 0-.074-.006-.109-.007H101.336a13.885 13.885 0 0 1-1.922.858.619.619 0 0 1 .15.012c.051.013.079.01.124.019.062.011.124.024.187.04a2.352 2.352 0 0 1 .334.124c.046.02.094.038.137.061.022.011.042.024.064.034l.042.024c.083.046.16.092.229.138l.043.028a2.705 2.705 0 0 0 .655.248l.067.012h.035a.9.9 0 0 0 .84-.248 1.348 1.348 0 0 0 .317-.916c0-.016-.058-.055-.124-.1" transform="translate(-64.582 -7.678)" style="fill:#6335b4"/>
    <path data-name="패스 30904" d="M90.61 10.091a1.7 1.7 0 0 1-.241.186 1.322 1.322 0 0 1-.179.11l-.064.033c-.036.02-.071.037-.1.052a.967.967 0 0 1-.124.05l-.068.025a13.314 13.314 0 0 0 3.381-.768 1.147 1.147 0 0 0 .085-.095c.011-.014.022-.024.033-.037l.051-.063a1.029 1.029 0 0 0 .088-.124c.218-.372.523-.976.115-1.337a.987.987 0 0 0-.627-.206 1.728 1.728 0 0 0-1.06.293 1.453 1.453 0 0 0-.552.785 1.428 1.428 0 0 1-.163.387 3 3 0 0 1-.353.487 2.307 2.307 0 0 1-.224.222" transform="translate(-58.355 -5.133)" style="fill:#6335b4"/>
    <path data-name="패스 30905" d="M89.977 16.158a1.559 1.559 0 0 0-.146-.192 1.032 1.032 0 0 0-.142-.146l-.009-.007-.047-.042a.635.635 0 0 0-.061-.05 15.6 15.6 0 0 1-2.673.357 1.238 1.238 0 0 1 .124.054h.014a.776.776 0 0 1 .1.047l.077.047a1.138 1.138 0 0 1 .181.124 1.912 1.912 0 0 1 .338.35c.026.033.048.071.072.105.031.061.061.124.088.171a5 5 0 0 1 .32.8.987.987 0 0 0 1.043.224 1.641 1.641 0 0 0 .908-.55c.453-.516-.187-1.3-.187-1.3z" transform="translate(-56.453 -10.194)" style="fill:#6335b4"/>
    <path data-name="패스 30907" d="M29.019 20.418c-1.709-3.542-3.51-4.984-4.73-5.571a3.119 3.119 0 0 0 2.069-.4 1.81 1.81 0 0 0-1.114-1.354l-.1-.041c-.034-.013-.073-.021-.109-.031a8.11 8.11 0 0 0-1.885.745q-.085-.094-.179-.187a7.143 7.143 0 0 1 .642-.36c.011-.03.022-.058.031-.088l.022-.071a2.039 2.039 0 0 0-.074-1.2c0 .015-.433.313-.474.345q-.248.2-.481.419a8.567 8.567 0 0 0-1 1.169 7.592 7.592 0 0 0-5.644-2.948.5.5 0 0 0-.53.344l-.13.433a5.991 5.991 0 0 0-3.664-.139.494.494 0 0 0-.314.23.482.482 0 0 0-.046.384l.3.993a5.567 5.567 0 0 0-2.351 3.2.447.447 0 0 0 .035.321v.007a.3.3 0 0 0 .04.058.54.54 0 0 1 .042.055 1.026 1.026 0 0 0 .364.22c-.077-.03-.318.3-.354.354a1.951 1.951 0 0 0-.207.533 6.718 6.718 0 0 0-.116 1.217 2.493 2.493 0 0 1-.112.614 1.018 1.018 0 0 1-.146.279 1.464 1.464 0 0 1-.247.211 2.8 2.8 0 0 0-.247.24c-.16.17-.3.355-.451.536A2.981 2.981 0 0 1 6.378 22a2.677 2.677 0 0 1-.645.108 3.167 3.167 0 0 0-.631.1 1.466 1.466 0 0 0-.99.692 1.059 1.059 0 0 0-.01.978.707.707 0 0 1-.173.094 1.078 1.078 0 0 0-.6 1.194l-.589.869a1.35 1.35 0 0 0-.866.4 1.018 1.018 0 0 0-.247.514c0 .016-.083.028-.1.033a.488.488 0 0 1-.1.036 1.849 1.849 0 0 0-.225.068A1.935 1.935 0 0 0 .8 27.3a1.78 1.78 0 0 0-.76 1.078 2.382 2.382 0 0 0 .166 1.4c.021.049.044.1.068.143A4.02 4.02 0 0 0 1.7 31.393a12.6 12.6 0 0 0 1.936.993.925.925 0 0 1 .578.464 1.971 1.971 0 0 1 .124.653l.074.966a4.315 4.315 0 0 1-.063.906.663.663 0 0 1-.018.109c-.326 1.986-1.541 3.121-1.148 4.9a3.582 3.582 0 0 0 .313.869l.628 1.04s-1.667-8.023 8.244-7.739c.263.007.292-.395.039-.463-.2-.055-.41-.107-.619-.159l-.714-.181-.792-.2-.854-.216q-.447-.113-.895-.233c-.3-.08-.619-.165-.918-.249s-.619-.175-.923-.268-.611-.185-.912-.285-.585-.195-.876-.3-.551-.2-.823-.314a8.34 8.34 0 0 1-1.281-.609 6.041 6.041 0 0 1-1.113-.894l-.069-.072a1.645 1.645 0 0 1-.495-.849 1.777 1.777 0 0 1 .277-1.038.879.879 0 0 1 .124-.19.372.372 0 0 1 .187-.107 1.512 1.512 0 0 1 .4-.083.494.494 0 0 0 .379-.176.485.485 0 0 0 .1-.4.287.287 0 0 1 .006-.2.334.334 0 0 1 .186-.068.86.86 0 0 1 .124-.011.283.283 0 0 1 .124.011.433.433 0 0 1 .1.062 3.41 3.41 0 0 1 .517.5c1.283 1.294 1.647.516 1.647.516a1.668 1.668 0 0 0-.394-1.93 3.216 3.216 0 0 1-.495-.439.8.8 0 0 1-.151-.55.417.417 0 0 1 .146-.3c.153-.114.57.05.755.066a2.178 2.178 0 0 0 .648-.015c.1-.021.286-.066.322-.179.093-.426-.371-.465-.371-.465a1.333 1.333 0 0 1-.417-.1 1.383 1.383 0 0 1-.361-.194.464.464 0 0 1-.176-.331.479.479 0 0 1 .215-.38 2.7 2.7 0 0 1 1.3-.32 6.792 6.792 0 0 0 1.435-.326 3.531 3.531 0 0 0 1.72-1.242 2.43 2.43 0 0 0 .411-1.014 2.778 2.778 0 0 0-.109-1.09c-.012-.053.006-.464.057-.464a1.243 1.243 0 0 0 .185-.01 3.827 3.827 0 0 0 .464-.063A4.866 4.866 0 0 0 11.7 18.3a6.365 6.365 0 0 0 1.485-1.04c.14-.124.276-.264.406-.4a.956.956 0 0 0 .17-.2c.039-.072.049-.154.094-.223a.57.57 0 0 1 .382-.2.721.721 0 0 1 .387-.01.8.8 0 0 1 .219.141 4.728 4.728 0 0 0 1.08.631c.044.02.079.141.1.181.036.076.069.153.1.228q.1.225.178.457a9.032 9.032 0 0 1 .205.7 1.163 1.163 0 0 1 .05.237q-.088-.137-.163-.282c-.058-.093-.124-.185-.183-.274a4.789 4.789 0 0 0-.419-.51 4.088 4.088 0 0 0-.526-.481l-.068-.05c-.025-.017-.048-.042-.044 0a.862.862 0 0 0 .07.174c.046.117.093.233.137.35q.269.7.5 1.419c.077.248.149.487.217.733s.124.48.172.723q.091.433.158.869a15.882 15.882 0 0 1 .178 2.79 15.188 15.188 0 0 1-.114 1.521 12.938 12.938 0 0 0-.152 1.424c0 .118 0 .236.006.354 0 .054.007.11.011.166a5.1 5.1 0 0 0 .272 1.249c.015.04-.059.16-.074.2-.031.077-.06.156-.088.234-.055.158-.1.317-.146.478a6.359 6.359 0 0 0-.176.983 6.54 6.54 0 0 0 .109 1.986 6.34 6.34 0 0 0 .646 1.744 6.022 6.022 0 0 0 .729 1.055 6.166 6.166 0 0 0 1.068.981 7.253 7.253 0 0 0 1.467.829 9.175 9.175 0 0 0 1.4.448 16.433 16.433 0 0 1-3.646-3.3.42.42 0 0 0-.043-.07l-.124-.156-.608-1.1a5.2 5.2 0 0 1-.178-2.919c-.01.047.135.211.162.249.063.092.124.182.194.27a6.606 6.606 0 0 0 .425.513 4.761 4.761 0 0 0 1.021.848 3.616 3.616 0 0 0 1.153.457 2.413 2.413 0 0 0 1.251-.007c-.247-.159-.528-.276-.778-.432a10.025 10.025 0 0 1-1.472-1.131 11.22 11.22 0 0 1-.247-.238 5.324 5.324 0 0 1-1.591-3.548v-.2a4.638 4.638 0 0 1 .38-1.683 3.9 3.9 0 0 1 .957-1.419c-.043.036-.224.034-.282.054a1.28 1.28 0 0 0-.323.173 1.611 1.611 0 0 0-.248.216 6.44 6.44 0 0 1-.205.215c-.074-.146 0-.39 0-.549 0-.2.01-.39.013-.585q.011-.585.013-1.17c0-.778-.021-1.557-.017-2.335a8.577 8.577 0 0 0-.215-1.971 5.777 5.777 0 0 0-.212-.711c.247.078.47.138.638.179l.356 1.385a.5.5 0 0 0 .335.348 4.61 4.61 0 0 1 1.1.478l-.034.006a.5.5 0 0 0-.358.269.483.483 0 0 0 .012.444 19.376 19.376 0 0 0 2 2.949 4.035 4.035 0 0 0 .63 2.815.472.472 0 0 0 .052.117c.035.053.069.1.1.153.052.088.105.174.163.266H21.7a.487.487 0 0 0-.224.062l-.186.1a.485.485 0 0 0-.247.412 4.04 4.04 0 0 0 1.481 3.231 5.131 5.131 0 0 0 2.75 3.3.439.439 0 0 0 .042.05 4.969 4.969 0 0 0 2.22 1.308c.031.007-.3.985-.322 1.055a9.014 9.014 0 0 1-.689 1.434c-.124.2-.248.4-.39.6-.07.1-.143.2-.218.293-.06.078-.1.165-.166.241a7.244 7.244 0 0 1-.9.884 9.6 9.6 0 0 1-2.112 1.373 9.4 9.4 0 0 1-2.4.776l-.174.03a6.137 6.137 0 0 1-3.006-.184 3.766 3.766 0 0 1-1.859-1.389 5.531 5.531 0 0 1-.3-.571 2.757 2.757 0 0 0 .162 1.081 2.893 2.893 0 0 0 1.215 1.49c.067.042.136.082.206.124h.009a5.283 5.283 0 0 0 2.4.526 9.414 9.414 0 0 0 2.643-.421 9.691 9.691 0 0 0 6.965-7.669.488.488 0 0 0-.428-.537 3.336 3.336 0 0 1-1.313-.472 4.367 4.367 0 0 0 1.187-.633.5.5 0 0 0 .162-.114l.029-.036a4.85 4.85 0 0 0 1.215-1.555.482.482 0 0 0 .046-.226c2.563-4.827-.337-10.665-.473-10.934m-3.29-1.816a4.255 4.255 0 0 0 .006-1.422 12.837 12.837 0 0 1 1.659 2.282 6.3 6.3 0 0 0-1.668-.84zm-1.416 6.875-1.251.327 1.714.1a8.637 8.637 0 0 1 .99 1.153 5.324 5.324 0 0 0-.286.533l-.043.148a1.689 1.689 0 0 0-.163-.113l-.2-.143a1.936 1.936 0 0 0-.2.179 1.45 1.45 0 0 1-.816-.193l-.1-.054a4.6 4.6 0 0 1-1.349-1.389c-.042-.07-.082-.139-.124-.2a4.343 4.343 0 0 1-.393-1.2 4.28 4.28 0 0 1-.057-.7c0-.115.006-.231.018-.344a.856.856 0 0 1 .012-.1l.049-.026.151.011.386.046c.257.041.511.087.757.152a5.653 5.653 0 0 1 .725.236c.116.045.229.1.341.153a3.068 3.068 0 0 1 .326.179 3.606 3.606 0 0 1 1.068.961 3.2 3.2 0 0 1 .349.607 2.7 2.7 0 0 1 .124.322l.025.09a3.788 3.788 0 0 0-.239.3 7.436 7.436 0 0 0-3.848-2.449 11.162 11.162 0 0 1 2.038 1.416m1.733-1.285a3.159 3.159 0 0 1 1.238-1.1 6.693 6.693 0 0 0-1.869.65c-.085-.048-.171-.1-.26-.144a3.95 3.95 0 0 0-.392-.178 4.056 4.056 0 0 0-.4-.142 5.756 5.756 0 0 0-.5-.131 3.982 3.982 0 0 1 1.2-.341c.073-.01.146-.02.22-.027a10.616 10.616 0 0 1 1.073-.058c.145 0 .264 0 .345.006h.027l.914.1a4.508 4.508 0 0 1-.61 2.523 4.114 4.114 0 0 0-.482-.7 4.165 4.165 0 0 0-.489-.472m.672-4.016a4.164 4.164 0 0 1-.3 1.675l-.088.026a9.951 9.951 0 0 0-1.012.191l-.13-.124-.39-.349c-.14-.124-.3-.236-.461-.36a4.538 4.538 0 0 0-.419-.292 11.389 11.389 0 0 1 2.38-.676 10.665 10.665 0 0 0-2.163-.009l-.227-.69-.1.73a5.947 5.947 0 0 0-.76.15 11.755 11.755 0 0 0-.4-.181c-.2-.083-.414-.149-.619-.214a5.891 5.891 0 0 0-.6-.134 2.932 2.932 0 0 0-.239-.035 7.2 7.2 0 0 1 3.988-.42 5.718 5.718 0 0 1 1.548.709m-2.1-4a1.125 1.125 0 0 1-.348.326 3.824 3.824 0 0 0-.051-.593q.19.113.4.263m-.694 1.394a1.625 1.625 0 0 0 .851-.23 3.154 3.154 0 0 1-.024 1.171l-.114.006a8.282 8.282 0 0 0-1.673.216 2.267 2.267 0 0 0 .223-.2 2.684 2.684 0 0 0 .222-.237 4.443 4.443 0 0 0 .511-.725m-2.444-1.816c0-.01.011-.021.015-.032a3.6 3.6 0 0 1 .506-.794v.004l.3-.406.342.155a2.89 2.89 0 0 1 .611 2.272.063.063 0 0 0 0 .016 4.989 4.989 0 0 1-.933 1.964c-.146.051-.28.1-.406.159a10.431 10.431 0 0 0 .407-1.826l.571-.7-.523.259a8.784 8.784 0 0 0 .011-1.456 38.117 38.117 0 0 1-1.05 4.01 6.353 6.353 0 0 0-.211.124 5.978 5.978 0 0 1 .322-3.636l.046-.105m-5.61-1.614.027-.056a.15.15 0 0 0 .013-.03 5.855 5.855 0 0 0 .918 1.389l-1.21-.761-.017.016a3.307 3.307 0 0 0 .271-.56m-5.626 3.653a4.808 4.808 0 0 0 .34-.691 6.316 6.316 0 0 0 1.416-.124 4.271 4.271 0 0 1-1.756.812M14.4 15.04a7.663 7.663 0 0 1-4.06 1.06 4.683 4.683 0 0 1 1.766-2.192 2.372 2.372 0 0 1 .33.042c.082.016.171.035.265.062s.194.062.3.093c.067.024.135.053.2.081a3.821 3.821 0 0 0-2.075 1.378 8.4 8.4 0 0 1 1.521-.771l.189.533.15-.644a2.738 2.738 0 0 1 .958-.124l.011.007c.1.062.206.124.3.185.124.078.231.155.335.231a.494.494 0 0 0-.192.067m.546-.1a6.629 6.629 0 0 0-1.6-1.4l-.042-.036-.038-.025a1.907 1.907 0 0 1-.784-.89l-.085-.285a5.035 5.035 0 0 1 2.266.087 1.062 1.062 0 0 1 .691.585 2.656 2.656 0 0 1 .016 1.153 2.154 2.154 0 0 0-1.98-1.542 2.2 2.2 0 0 1 1.187.77l-.96-.071 1.152.394a2.385 2.385 0 0 1 .178 1.25m2.878 1.679a9.057 9.057 0 0 1-1.92-.705 2.14 2.14 0 0 0-.351-.212 1.517 1.517 0 0 1-.4-.388c.076-.083.146-.165.208-.249l1.654.57a6.738 6.738 0 0 0 1.31 1.049 1.947 1.947 0 0 1-.5-.064m.237-.925a7.6 7.6 0 0 1-1.815-3.742l.021-.068a9.051 9.051 0 0 1 4.695 2.652 1.755 1.755 0 0 1 .1.176l-.07.166a6.989 6.989 0 0 0-.167.49c-.025.088-.052.179-.074.272a6.07 6.07 0 0 0-.135.6 4.658 4.658 0 0 0-.625-1.128l-.146-1.456-.23.993a10.634 10.634 0 0 0-2.83-2.2 16.82 16.82 0 0 1 1.512 1.506l-1.048.257 1.338.075a18.984 18.984 0 0 1 1.877 2.591 3.913 3.913 0 0 1-1.715-.621 6.833 6.833 0 0 1-.194-.14c-.158-.138-.328-.269-.486-.418m.754 2.752-.248-.951a3.911 3.911 0 0 0 .877-.238c.2.081.371.147.535.2l-.866.835 1.337-.608a9.147 9.147 0 0 0 .124 1.785 4.7 4.7 0 0 0-1.762-1.019m2.83 4.735c-.292-.417-.8-1.274-1.349-2.164a3.114 3.114 0 0 1 1.694-.278c.131.021.266.041.4.072l.114.03a5.315 5.315 0 0 1 2.227 1.286 4.235 4.235 0 0 0-.828.107 5.992 5.992 0 0 0-2.56-1.064s.936.643 1.732 1.292l-.1.055a8.762 8.762 0 0 0-1.331.664m2.009 6.911-.3-.081a3.221 3.221 0 0 1-1.319-2.25l.742-.02a3.237 3.237 0 0 0 1.466.848 5.575 5.575 0 0 0-.257.516 3.413 3.413 0 0 1-1.512-.962 2.851 2.851 0 0 0 1.361 1.349 6.933 6.933 0 0 0-.179.6m3.007 1.332a3.362 3.362 0 0 1-.172.755 1.532 1.532 0 0 1-.343.578.623.623 0 0 1-.151.107 10.111 10.111 0 0 0-.716-4.051 29.29 29.29 0 0 1 .115 3.009l-.731-.914.641 1.646c-.11.1-.371.19-.4.278a3.016 3.016 0 0 1-1.036-1.111 5.905 5.905 0 0 1 1.254-3.647 2.737 2.737 0 0 1 .338.208 2.9 2.9 0 0 1 .676.842 4.7 4.7 0 0 1 .484 1.513c.019.134.033.268.041.4 0 .067.006.133.006.2a1.558 1.558 0 0 1-.01.185m.877 1.008a3.461 3.461 0 0 1-.4.282 3.049 3.049 0 0 0 .1-.327 3.8 3.8 0 0 0 .089-.672.5.5 0 0 0 .206-.072.908.908 0 0 1 .718-.124 7.582 7.582 0 0 1-.708.919m.4-3.3a6.747 6.747 0 0 1-.742 1.391 5.222 5.222 0 0 0-.619-1.482c.006-.022.015-.042.022-.062l1.258-.3-1.075-.133a6.8 6.8 0 0 1 1.061-1.526l.371-.373-.495.179a3.68 3.68 0 0 0-1.558 1.614 1.99 1.99 0 0 0-.19-.206l-.158-.15c-.066-.061-.1-.075-.09-.164a.583.583 0 0 1 .132-.285l.286-.408c.046-.065.09-.124.141-.19a1.553 1.553 0 0 1 .21-.211 2.136 2.136 0 0 1 .588-.328 1.362 1.362 0 0 1 .224-.091c.115-.022.23-.04.346-.054a6.578 6.578 0 0 1 .686-.055 6.017 6.017 0 0 1 .031.724 5.588 5.588 0 0 1-.062.737 6.245 6.245 0 0 1-.371 1.365m.8 1.52a2.161 2.161 0 0 0-.386-.107 7.032 7.032 0 0 0 .892-4.851.5.5 0 0 0-.523-.4l-.588.048a5 5 0 0 0 .412-3.047.5.5 0 0 0-.428-.384l-.646-.072a5.261 5.261 0 0 0 .229-1.854c.145.27.291.551.436.854.032.062 2.693 5.429.6 9.807" transform="translate(0 -7.024)" style="fill:#6335b4"/>
    <path data-name="패스 30908" d="M20.18 39.121a2.553 2.553 0 0 1 1.524-1.49l.3.343-1.01 1.07-.57.31-.159-.142z" transform="translate(-13.109 -24.403)" style="fill:#6335b4"/>
</svg>
